<?xml version="1.0" encoding="UTF-8"?><svg xmlns="http://www.w3.org/2000/svg" xmlns:xlink="http://www.w3.org/1999/xlink" viewBox="0 0 138.2 151.51"><defs><style>.e,.f{fill:none;}.g{fill:#008f93;}.h{fill:#fff;}.i{fill:#fcb912;}.f{stroke:#34b578;stroke-miterlimit:10;}.j{clip-path:url(#d);}</style><clipPath id="d"><rect class="e" width="138.2" height="151.51"/></clipPath></defs><g id="a"/><g id="b"><g id="c"><g><g class="j"><path class="h" d="M118.19,75.75c-4.23,25.77-22.52,45.25-44.76,46.03-29.32,1.03-59.63-24.52-53.13-53.13,6.75-29.68,20.37-42.29,49.43-38.22,29.56,4.14,53.21,16.36,48.46,45.31"/><path class="f" d="M125.12,70.11c5.51,27.47-31.33,64.05-63.58,58.98-31.09-4.89-51.96-21.86-48.67-53.17,4.44-42.21,31.32-57.64,62.49-53.27,31.71,4.44,44.44,20.92,49.76,47.46Zm2.24-.39c5.73,29.39-32.58,68.53-66.12,63.11-32.33-5.23-54.04-23.4-50.62-56.89C15.24,30.77,43.2,14.26,75.61,18.93c32.98,4.75,46.22,22.39,51.75,50.78Zm2.33-.42c5.95,31.45-33.88,73.33-68.77,67.53-33.63-5.59-56.2-25.03-52.64-60.87C13.09,27.62,42.16,9.96,75.87,14.96c34.3,5.09,48.07,23.96,53.82,54.34Zm2.42-.45c6.19,33.65-35.24,78.46-71.52,72.25C25.63,135.11,2.15,114.31,5.85,75.96,10.85,24.25,41.09,5.35,76.15,10.7c35.67,5.44,49.99,25.63,55.97,58.14Zm2.52-.48c6.44,36.01-36.65,83.96-74.38,77.31C23.89,139.27-.53,117.01,3.32,75.98,8.52,20.64,39.97,.42,76.43,6.15c37.09,5.82,51.99,27.43,58.21,62.21Zm2.62-.52c6.7,38.53-38.12,89.83-77.35,82.72C22.08,143.71-3.32,119.9,.69,75.99,6.09,16.79,38.8-4.85,76.72,1.28c38.58,6.23,54.07,29.35,60.54,66.57Z"/></g><path class="i" d="M84.79,53.58c.54,.53,.81,1.17,.81,1.94v4.14c0,1-.25,1.91-.75,2.75-.5,.84-1.17,1.5-2,2-.84,.5-1.75,.75-2.75,.75h-.35c-.56,2.17-1.69,4-3.39,5.5-1.7,1.5-3.67,2.37-5.9,2.64v5.59h6.91v2.77h-16.5v-2.77h6.86v-5.59c-2.2-.32-4.14-1.22-5.81-2.71-1.67-1.48-2.8-3.29-3.39-5.43h-.44c-1,0-1.91-.25-2.75-.75-.84-.5-1.5-1.17-2-2s-.75-1.75-.75-2.75v-4.14c0-.76,.27-1.41,.81-1.94,.54-.53,1.19-.79,1.96-.79h2.73v-1.41c0-.73,.27-1.37,.81-1.91,.54-.54,1.19-.81,1.96-.81h16.5c.73,0,1.37,.27,1.91,.81,.54,.54,.81,1.18,.81,1.91v1.41h2.77c.73,0,1.37,.26,1.91,.79Zm-26.68,1.94h-2.77v4.14c.03,.76,.31,1.41,.84,1.94,.53,.53,1.17,.79,1.94,.79v-6.86Zm19.27-4.14h-16.5v10.6c-.03,1.5,.3,2.89,.99,4.18,.69,1.29,1.65,2.34,2.88,3.15,1.23,.81,2.59,1.25,4.09,1.34,1.11,.03,2.19-.16,3.23-.55,1.04-.4,1.97-.98,2.77-1.76,.81-.78,1.42-1.68,1.85-2.71,.43-1.03,.65-2.11,.68-3.26v-11Zm5.5,4.14h-2.77v6.86c.76,0,1.41-.26,1.94-.79,.53-.53,.81-1.17,.84-1.94v-4.14Z"/><g><path class="g" d="M53.68,91.51v1.62h-4.23v2.02h3.67v1.5h-3.67v3.62h-1.93v-8.76h6.16Z"/><path class="g" d="M58.63,91.51l3.28,8.76h-2l-.66-1.95h-3.28l-.69,1.95h-1.94l3.31-8.76h1.98Zm.11,5.37l-1.1-3.21h-.02l-1.14,3.21h2.27Z"/><path class="g" d="M64.13,98.11c.11,.2,.25,.37,.42,.5,.18,.13,.38,.22,.62,.28,.24,.06,.48,.09,.74,.09,.17,0,.36-.01,.55-.04,.2-.03,.38-.08,.55-.17s.31-.19,.43-.34c.11-.14,.17-.33,.17-.55,0-.24-.08-.43-.23-.58s-.35-.27-.59-.37-.52-.18-.83-.26c-.31-.07-.63-.16-.95-.25-.33-.08-.65-.18-.96-.3-.31-.12-.59-.27-.83-.46-.25-.19-.44-.42-.59-.71-.15-.28-.23-.62-.23-1.02,0-.45,.1-.84,.29-1.17s.44-.61,.75-.83c.31-.22,.66-.38,1.06-.49,.39-.11,.79-.16,1.18-.16,.46,0,.9,.05,1.32,.15,.42,.1,.8,.27,1.12,.5s.59,.52,.78,.88c.19,.36,.29,.79,.29,1.29h-1.87c-.02-.26-.07-.48-.17-.65-.09-.17-.22-.31-.38-.4s-.33-.17-.53-.21-.42-.06-.66-.06c-.16,0-.31,.02-.47,.05-.16,.03-.3,.09-.42,.17s-.23,.18-.31,.31c-.08,.12-.12,.28-.12,.47,0,.17,.03,.31,.1,.42s.19,.2,.39,.29c.19,.09,.46,.18,.8,.27,.34,.09,.78,.2,1.33,.34,.16,.03,.39,.09,.68,.18,.29,.09,.58,.22,.87,.41,.29,.19,.53,.44,.74,.75s.31,.72,.31,1.21c0,.4-.08,.77-.23,1.12s-.39,.64-.69,.89-.69,.44-1.14,.58c-.45,.14-.98,.21-1.58,.21-.48,0-.95-.06-1.41-.18-.45-.12-.85-.3-1.2-.56-.35-.25-.62-.58-.83-.97-.2-.39-.3-.86-.29-1.4h1.86c0,.29,.05,.54,.16,.75Z"/><path class="g" d="M77.29,91.51v1.62h-4.63v1.88h4.25v1.5h-4.25v2.15h4.72v1.62h-6.65v-8.76h6.55Z"/><path class="g" d="M84.02,91.51v8.76h-1.93v-8.76h1.93Z"/><path class="g" d="M87.71,91.51v8.76h-1.93v-8.76h1.93Z"/><path class="g" d="M91.4,91.51v8.76h-1.93v-8.76h1.93Z"/></g></g></g></g></svg>