<?xml version="1.0" encoding="UTF-8"?><svg xmlns="http://www.w3.org/2000/svg" viewBox="0 0 143.03 156.74"><defs><style>.d{fill:#0056a6;}.e{fill:#008f93;}.f{fill:#fff;}.g{fill:#fcb912;}</style></defs><g id="a"/><g id="b"><g id="c"><g><g><path class="f" d="M122.17,78.38c-4.36,26.59-23.23,46.69-46.19,47.49-30.26,1.07-61.53-25.3-54.82-54.82,6.96-30.63,21.02-43.63,51-39.43,30.5,4.27,54.9,16.88,50.01,46.76"/><path class="d" d="M69.59,156.74c-2.6,0-5.15-.22-7.65-.67-20.54-3.72-36.36-11.9-47.03-24.3C3.32,118.28-1.56,100.38,.43,78.58,3.23,47.95,13.5,24.93,30.14,12.02,43.37,1.76,60.42-2.04,79.46,1.04c36.68,5.93,55.49,26.59,62.88,69.09,3.5,20.12-6.57,45.35-25.64,64.29-14.43,14.33-31.53,22.32-47.12,22.32ZM66.93,1c-13.77,0-26.11,4-36.18,11.81C14.34,25.55,4.2,48.32,1.43,78.67c-3.79,41.5,17.77,68.63,60.69,76.41,17.14,3.1,37.27-4.89,53.88-21.37,18.85-18.71,28.8-43.6,25.36-63.41C134.05,28.29,115.49,7.87,79.3,2.02c-4.23-.68-8.36-1.02-12.37-1.02Zm2.8,150.65c-2.52,0-4.99-.21-7.42-.64-19.75-3.48-34.97-11.12-45.23-22.72C5.92,115.68,1.23,98.95,3.15,78.56,5.8,50.32,15.46,28.97,31.09,16.82,43.9,6.86,60.53,3.14,79.16,6.06c35.28,5.54,53.37,24.86,60.48,64.6h0c3.26,18.24-5.92,41.35-23.4,58.88-14.15,14.19-31.04,22.11-46.51,22.11ZM67.09,6.09c-13.52,0-25.59,3.9-35.39,11.52C16.3,29.58,6.77,50.69,4.14,78.66c-3.64,38.76,17.08,64.11,58.34,71.37,16.99,2.99,36.82-4.93,53.04-21.2,17.26-17.3,26.33-40.07,23.13-58-7.02-39.25-24.86-58.32-59.65-63.79-4.07-.64-8.05-.96-11.91-.96Zm2.77,140.8c-2.44,0-4.84-.2-7.2-.6-18.99-3.25-33.63-10.4-43.5-21.24-10.74-11.8-15.25-27.44-13.41-46.51,2.52-26.04,11.6-45.84,26.27-57.26,12.41-9.66,28.6-13.3,46.83-10.52,33.93,5.18,51.33,23.24,58.17,60.4,3.09,16.79-5.08,37.43-21.32,53.88-13.85,14.02-30.51,21.86-45.85,21.86Zm-2.61-136.04c-13.27,0-25.08,3.8-34.61,11.22-14.45,11.25-23.4,30.81-25.89,56.57-3.5,36.2,16.42,59.88,56.08,66.67,16.85,2.89,36.35-4.96,52.17-20.98,16.01-16.21,24.08-36.52,21.04-52.99-6.75-36.67-23.89-54.49-57.33-59.59-3.92-.6-7.75-.9-11.46-.9Zm2.75,131.6c-2.37,0-4.7-.19-7-.57-18.27-3.04-32.34-9.72-41.83-19.85-10.33-11.03-14.67-25.67-12.9-43.5,2.38-24,10.92-42.36,24.69-53.1,12.02-9.37,27.8-12.92,45.62-10.28,32.64,4.84,49.37,21.73,55.95,56.47,2.88,15.21-4.54,34.09-19.38,49.25-13.53,13.83-29.95,21.58-45.16,21.58Zm-2.59-127.15c-13.03,0-24.57,3.7-33.83,10.92-13.55,10.56-21.95,28.69-24.31,52.41-3.36,33.81,15.78,55.93,53.9,62.27,16.7,2.78,35.87-4.97,51.27-20.72,14.61-14.94,21.93-33.47,19.11-48.37-6.49-34.25-22.97-50.9-55.11-55.67-3.78-.56-7.46-.84-11.03-.84Zm2.48,122.98c-2.23,0-4.41-.17-6.56-.52-37.24-6.02-55.94-27.06-52.65-59.25,2.29-22.43,10.1-39,23.2-49.22,11.63-9.08,26.99-12.55,44.43-10.04,31.39,4.52,47.49,20.32,53.81,52.8h0c2.68,13.78-4.05,31.02-17.57,44.99-13.05,13.47-29.63,21.23-44.67,21.24Zm-2.33-118.82c-12.78,0-24.06,3.6-33.05,10.62-12.88,10.05-20.56,26.38-22.82,48.54-3.23,31.58,15.17,52.23,51.81,58.16,16.31,2.64,35.59-5.19,50.34-20.43,13.3-13.74,19.93-30.63,17.31-44.1-6.23-32-22.08-47.55-52.97-52-3.64-.52-7.18-.78-10.62-.78Zm2.47,114.94c-2.16,0-4.29-.16-6.38-.49-35.82-5.63-53.81-25.31-50.64-55.41,2.17-20.67,9.51-36.02,21.79-45.62,11.25-8.79,26.21-12.18,43.25-9.79,30.19,4.23,45.67,19,51.76,49.37h0c2.54,12.67-3.41,28.02-15.91,41.06-12.7,13.24-29,20.88-43.88,20.88Zm-2.33-111.05c-12.53,0-23.55,3.5-32.28,10.32-12.07,9.43-19.27,24.55-21.42,44.94-3.1,29.49,14.58,48.78,49.8,54.32,16.14,2.54,35.07-5.16,49.38-20.1,12.27-12.8,18.12-27.82,15.65-40.17-5.99-29.89-21.22-44.41-50.92-48.57-3.5-.49-6.91-.73-10.22-.73Z"/></g><path class="g" d="M72.91,85.7c-.18,.03-.35,0-.5-.09-.24-.09-.45-.23-.61-.43-.17-.2-.26-.42-.29-.66l-1.41-9.95,2.86-.41,1.04,7.5,4.59-3.73v-10.68c0-.39,.14-.73,.41-1l5.82-5.77c1.18-1.21,2.1-2.6,2.75-4.16,.65-1.56,.98-3.19,.98-4.88v-2.63h-2.63c-1.7,0-3.32,.33-4.88,.98-1.56,.65-2.95,1.57-4.16,2.75l-5.77,5.82c-.27,.27-.61,.41-1,.41h-10.68l-3.73,4.63,7.5,1.04-.41,2.86-9.95-1.45c-.24-.03-.46-.12-.66-.27-.2-.15-.34-.35-.43-.59-.09-.24-.12-.49-.09-.75,.03-.26,.12-.48,.27-.66l5.68-7.13c.3-.36,.68-.55,1.14-.55h10.77l5.36-5.36c1.45-1.45,3.13-2.58,5.04-3.38,1.91-.8,3.91-1.2,6-1.2h2.63c.79,.03,1.46,.32,2.02,.86,.56,.55,.84,1.21,.84,2v2.63c0,2.09-.4,4.09-1.2,6-.8,1.91-1.93,3.59-3.38,5.04l-5.36,5.36v10.77c0,.45-.18,.83-.55,1.14l-7.09,5.68c-.27,.18-.58,.27-.91,.27Zm-13.76-9.49l11.36-11.36,2,2-11.36,11.36-2-2Z"/><g><path class="e" d="M58.75,92.85v1.62h-4.23v2.02h3.67v1.5h-3.67v3.62h-1.93v-8.76h6.16Z"/><path class="e" d="M63.7,92.85l3.28,8.76h-2l-.66-1.95h-3.28l-.69,1.95h-1.94l3.31-8.76h1.98Zm.11,5.37l-1.1-3.21h-.02l-1.14,3.21h2.27Z"/><path class="e" d="M69.2,99.45c.11,.2,.25,.37,.42,.5,.18,.13,.38,.22,.62,.28,.24,.06,.48,.09,.74,.09,.17,0,.36-.01,.55-.04,.2-.03,.38-.08,.55-.17s.31-.19,.43-.34c.11-.14,.17-.33,.17-.55,0-.24-.08-.43-.23-.58s-.35-.27-.59-.37-.52-.18-.83-.26c-.31-.07-.63-.16-.95-.25-.33-.08-.65-.18-.96-.3-.31-.12-.59-.27-.83-.46-.25-.19-.44-.42-.59-.71-.15-.28-.23-.62-.23-1.02,0-.45,.1-.84,.29-1.17s.44-.61,.75-.83c.31-.22,.66-.38,1.06-.49,.39-.11,.79-.16,1.18-.16,.46,0,.9,.05,1.32,.15,.42,.1,.8,.27,1.12,.5s.59,.52,.78,.88c.19,.36,.29,.79,.29,1.29h-1.87c-.02-.26-.07-.48-.17-.65-.09-.17-.22-.31-.38-.4s-.33-.17-.53-.21-.42-.06-.66-.06c-.16,0-.31,.02-.47,.05-.16,.03-.3,.09-.42,.17s-.23,.18-.31,.31c-.08,.12-.12,.28-.12,.47,0,.17,.03,.31,.1,.42s.19,.2,.39,.29c.19,.09,.46,.18,.8,.27,.34,.09,.78,.2,1.33,.34,.16,.03,.39,.09,.68,.18s.58,.22,.87,.41c.29,.19,.53,.44,.74,.75s.31,.72,.31,1.21c0,.4-.08,.77-.23,1.12s-.39,.64-.69,.89-.69,.44-1.14,.58c-.45,.14-.98,.21-1.58,.21-.48,0-.95-.06-1.41-.18-.45-.12-.85-.3-1.2-.56-.35-.25-.62-.58-.83-.97-.2-.39-.3-.86-.29-1.4h1.86c0,.29,.05,.54,.16,.75Z"/><path class="e" d="M82.36,92.85v1.62h-4.63v1.88h4.25v1.5h-4.25v2.15h4.72v1.62h-6.65v-8.76h6.55Z"/><path class="e" d="M89.09,92.85v8.76h-1.93v-8.76h1.93Z"/><path class="e" d="M92.78,92.85v8.76h-1.93v-8.76h1.93Z"/></g></g></g></g></svg>