<?xml version="1.0" encoding="UTF-8"?><svg xmlns="http://www.w3.org/2000/svg" xmlns:xlink="http://www.w3.org/1999/xlink" viewBox="0 0 138.64 151.93"><defs><style>.e{fill:none;}.f{fill:#fff;}.g{fill:#fcb912;}.h{fill:#5ccaf2;}.i{clip-path:url(#d);}</style><clipPath id="d"><rect class="e" x=".23" y=".22" width="138.2" height="151.51"/></clipPath></defs><g id="a"/><g id="b"><g id="c"><g><g class="i"><path class="f" d="M118.41,75.98c-4.23,25.77-22.52,45.25-44.76,46.03-29.32,1.03-59.63-24.52-53.13-53.13,6.75-29.68,20.37-42.29,49.43-38.22,29.56,4.14,53.21,16.36,48.46,45.31"/><path class="h" d="M67.46,151.93c-2.52,0-5-.22-7.41-.65-19.91-3.61-35.24-11.53-45.58-23.56C3.21,114.65-1.51,97.3,.42,76.17,3.13,46.48,13.09,24.17,29.21,11.65,42.04,1.71,58.57-1.98,77.03,1c35.56,5.74,53.79,25.78,60.95,66.97h0c3.39,19.5-6.36,43.96-24.85,62.32-13.99,13.89-30.57,21.64-45.67,21.64ZM64.88,1c-13.34,0-25.29,3.88-35.05,11.44C13.92,24.78,4.1,46.85,1.42,76.26c-3.67,40.21,17.21,66.5,58.81,74.04,16.6,3.01,36.11-4.74,52.2-20.71,18.26-18.13,27.9-42.25,24.57-61.44h0C129.92,27.44,111.94,7.66,76.87,1.99c-4.1-.66-8.1-.99-11.99-.99Zm2.71,146c-2.44,0-4.84-.2-7.19-.62-19.14-3.37-33.89-10.78-43.84-22.02C5.74,112.14,1.2,95.92,3.05,76.15,5.62,48.77,14.99,28.08,30.13,16.31,42.56,6.65,58.68,3.04,76.73,5.88c34.2,5.37,51.73,24.1,58.62,62.62,3.16,17.68-5.74,40.09-22.68,57.08-13.72,13.75-30.09,21.43-45.08,21.43ZM65.04,5.94c-13.1,0-24.8,3.78-34.29,11.16C15.83,28.69,6.59,49.15,4.05,76.25c-3.53,37.56,16.55,62.12,56.53,69.16,16.47,2.9,35.67-4.78,51.39-20.54,16.72-16.76,25.51-38.82,22.41-56.19-6.8-38.03-24.09-56.51-57.79-61.81-3.95-.62-7.8-.93-11.54-.93Zm2.68,136.46c-2.37,0-4.7-.19-6.98-.58-18.41-3.15-32.6-10.08-42.16-20.59-10.41-11.44-14.78-26.61-13-45.09,2.44-25.24,11.25-44.44,25.47-55.51,12.03-9.37,27.73-12.9,45.4-10.2,32.9,5.02,49.76,22.53,56.39,58.55,3,16.28-4.92,36.29-20.66,52.23-13.42,13.59-29.58,21.19-44.45,21.19Zm-2.53-131.85c-12.86,0-24.3,3.68-33.53,10.87-14,10.9-22.67,29.85-25.08,54.81-3.39,35.08,15.91,58.02,54.33,64.59,16.33,2.79,35.22-4.81,50.55-20.33,15.51-15.71,23.33-35.38,20.39-51.34-6.54-35.53-23.15-52.79-55.55-57.74-3.8-.58-7.51-.87-11.1-.87Zm2.66,127.54c-2.29,0-4.56-.18-6.78-.55-37.53-6.24-56.37-28.06-53.06-61.42,2.31-23.27,10.59-41.06,23.94-51.47,11.65-9.08,26.95-12.53,44.22-9.97,31.64,4.69,47.86,21.06,54.24,54.74,2.79,14.75-4.4,33.05-18.78,47.75-13.11,13.41-29.03,20.92-43.77,20.92Zm-2.51-123.23c-12.62,0-23.8,3.58-32.77,10.58-13.13,10.23-21.27,27.79-23.56,50.78-3.26,32.76,15.29,54.19,52.23,60.33,16.18,2.69,34.75-4.82,49.68-20.08,14.15-14.47,21.25-32.43,18.51-46.86-6.28-33.19-22.25-49.32-53.4-53.94-3.66-.54-7.23-.81-10.69-.81Zm2.4,119.18c-2.16,0-4.28-.16-6.36-.5-36.1-5.84-54.22-26.24-51.03-57.44,2.22-21.75,9.79-37.8,22.49-47.72,11.27-8.8,26.17-12.17,43.07-9.73,30.43,4.39,46.03,19.69,52.17,51.18,2.6,13.36-3.92,30.07-17.04,43.61-12.65,13.06-28.72,20.58-43.3,20.58Zm-2.26-115.15c-12.38,0-23.31,3.49-32.02,10.29-12.48,9.74-19.92,25.56-22.11,47.03-3.13,30.6,14.7,50.61,50.2,56.35,15.78,2.55,34.48-5.03,48.78-19.79,12.89-13.31,19.31-29.68,16.77-42.73-6.04-31-21.39-46.07-51.33-50.38-3.52-.51-6.96-.76-10.29-.76Zm2.39,111.39c-2.1,0-4.16-.16-6.18-.47-34.73-5.46-52.16-24.53-49.09-53.72,2.11-20.04,9.22-34.92,21.13-44.23,10.91-8.52,25.4-11.81,41.93-9.49,29.27,4.1,44.28,18.41,50.18,47.86h0c2.46,12.29-3.3,27.17-15.42,39.81-12.31,12.84-28.11,20.24-42.54,20.24Zm-2.25-107.63c-12.14,0-22.82,3.39-31.27,10-11.69,9.14-18.67,23.79-20.75,43.54-3.01,28.57,14.13,47.26,48.25,52.62,15.64,2.46,33.97-5,47.85-19.47,11.89-12.4,17.56-26.95,15.16-38.92h0c-5.8-28.96-20.56-43.03-49.34-47.06-3.39-.48-6.7-.71-9.9-.71Z"/></g><path class="g" d="M82.26,77.14v4.18h-29.44v-4.18h14.69v-10.51h-2.09c-2.29,0-4.4-.57-6.33-1.72-1.93-1.15-3.46-2.68-4.58-4.62-1.12-1.93-1.68-4.04-1.68-6.33v-6.27h6.27c2.29,0,4.43,.58,6.43,1.75,2,1.17,3.54,2.76,4.62,4.78,.81-.76,1.7-1.35,2.69-1.75,.99-.4,2.02-.61,3.1-.61h6.33v6.33c0,1.53-.38,2.93-1.14,4.21-.76,1.28-1.79,2.3-3.07,3.07-1.28,.76-2.68,1.14-4.21,1.14h-2.09v10.51h10.51Zm-29.44,14.75h29.44v-4.24h-29.44v4.24Zm0,10.51h29.44v-4.24h-29.44v4.24Zm14.69-40.02v-2.09c0-1.53-.37-2.93-1.11-4.21s-1.76-2.3-3.07-3.07c-1.3-.76-2.72-1.15-4.24-1.15h-2.09v2.09c0,1.53,.38,2.94,1.14,4.24,.76,1.3,1.79,2.32,3.07,3.07s2.68,1.11,4.21,1.11h2.09Zm5.46-5.05c-.81,.81-1.21,1.8-1.21,2.96v2.09h2.09c1.17,0,2.15-.4,2.96-1.21s1.23-1.8,1.28-2.96v-2.16h-2.15c-1.17,.05-2.15,.47-2.96,1.28Z"/></g></g></g></svg>