<?xml version="1.0" encoding="UTF-8"?><svg xmlns="http://www.w3.org/2000/svg" xmlns:xlink="http://www.w3.org/1999/xlink" viewBox="0 0 144.29 158.12"><defs><style>.e{fill:none;}.f{fill:#0056a6;}.g{fill:#008f93;}.h{fill:#fff;}.i{fill:#fcb912;}.j{clip-path:url(#d);}</style><clipPath id="d"><rect class="e" x=".22" y=".21" width="143.87" height="157.72"/></clipPath></defs><g id="a"/><g id="b"><g id="c"><g><g class="j"><path class="h" d="M123.25,79.07c-4.4,26.83-23.44,47.1-46.6,47.92-30.53,1.08-62.08-25.52-55.31-55.31,7.02-30.9,21.2-44.02,51.45-39.78,30.77,4.31,55.39,17.03,50.45,47.17"/><path class="f" d="M70.2,158.12c-2.62,0-5.2-.22-7.71-.68-20.72-3.75-36.68-12-47.44-24.52C3.35,119.32-1.57,101.27,.44,79.27,3.26,48.37,13.62,25.15,30.4,12.13,43.75,1.78,60.96-2.06,80.16,1.05c37.01,5.98,55.98,26.82,63.43,69.7h0c3.53,20.29-6.62,45.75-25.86,64.85-14.56,14.46-31.81,22.52-47.53,22.52ZM67.52,1c-13.89,0-26.34,4.04-36.5,11.92C14.46,25.77,4.23,48.74,1.43,79.37c-3.82,41.87,17.92,69.25,61.23,77.09,17.29,3.13,37.61-4.93,54.36-21.57,19.01-18.88,29.06-43.99,25.58-63.97h0C135.24,28.53,116.52,7.93,80,2.03c-4.27-.69-8.44-1.03-12.49-1.03Zm2.82,151.99c-2.54,0-5.04-.21-7.48-.64-19.92-3.51-35.28-11.22-45.63-22.92C5.97,116.7,1.25,99.82,3.18,79.26,5.85,50.76,15.6,29.22,31.36,16.97,44.29,6.92,61.06,3.17,79.85,6.12c35.59,5.59,53.84,25.08,61.01,65.17,3.29,18.4-5.97,41.72-23.61,59.4-14.27,14.31-31.32,22.31-46.92,22.31ZM67.68,6.14c-13.64,0-25.82,3.94-35.71,11.62C16.44,29.84,6.82,51.14,4.17,79.35c-3.67,39.11,17.23,64.68,58.86,72.01,17.15,3.02,37.15-4.98,53.52-21.39,17.41-17.46,26.57-40.42,23.33-58.52-7.08-39.6-25.08-58.85-60.18-64.36-4.11-.65-8.12-.97-12.02-.97Zm2.79,142.05c-2.46,0-4.89-.2-7.26-.61-19.16-3.28-33.92-10.49-43.88-21.43-10.83-11.9-15.38-27.69-13.53-46.92,2.54-26.27,11.7-46.25,26.5-57.77,12.52-9.75,28.86-13.42,47.25-10.61,34.23,5.22,51.78,23.45,58.68,60.93h0c3.12,16.94-5.12,37.76-21.5,54.35-13.97,14.15-30.78,22.06-46.26,22.06Zm-2.63-137.25c-13.39,0-25.31,3.83-34.92,11.32-14.58,11.35-23.61,31.09-26.12,57.08-3.53,36.53,16.56,60.41,56.58,67.26,17,2.91,36.68-5,52.64-21.17,16.16-16.36,24.29-36.84,21.23-53.47-6.81-36.99-24.11-54.97-57.85-60.12-3.96-.6-7.82-.9-11.56-.9Zm2.77,132.77c-2.39,0-4.74-.19-7.06-.57-18.43-3.07-32.62-9.8-42.2-20.03-10.42-11.13-14.8-25.89-13.01-43.88,2.41-24.21,11.02-42.74,24.91-53.57,12.12-9.45,28.04-13.04,46.02-10.37,32.92,4.88,49.81,21.92,56.44,56.97h0c2.91,15.35-4.58,34.39-19.54,49.69-13.65,13.96-30.22,21.77-45.56,21.77Zm-2.62-128.28c-13.14,0-24.79,3.73-34.13,11.02-13.67,10.66-22.15,28.94-24.53,52.88-3.39,34.11,15.92,56.43,54.38,62.83,16.85,2.8,36.19-5.01,51.73-20.91,14.74-15.07,22.12-33.77,19.28-48.8h0c-6.54-34.56-23.17-51.35-55.61-56.16-3.81-.57-7.53-.85-11.13-.85Zm2.5,124.07c-2.25,0-4.45-.17-6.61-.52-37.57-6.07-56.43-27.3-53.11-59.77,2.31-22.63,10.19-39.34,23.41-49.66,11.73-9.16,27.23-12.66,44.82-10.13,31.67,4.57,47.9,20.49,54.29,53.26,2.71,13.9-4.09,31.29-17.73,45.38-13.16,13.59-29.89,21.42-45.06,21.42Zm-2.35-119.87c-12.89,0-24.28,3.63-33.35,10.72-12.99,10.14-20.74,26.62-23.03,48.97-3.26,31.86,15.31,52.7,52.28,58.68,16.44,2.66,35.91-5.24,50.79-20.61,13.42-13.86,20.11-30.91,17.47-44.5-6.29-32.28-22.27-47.97-53.45-52.47-3.67-.53-7.24-.79-10.71-.79Zm2.49,115.96c-2.18,0-4.33-.16-6.43-.49-36.14-5.68-54.28-25.53-51.08-55.9,2.19-20.85,9.59-36.34,21.99-46.02,11.35-8.87,26.44-12.28,43.63-9.87,30.46,4.27,46.08,19.17,52.22,49.8h0c2.56,12.78-3.44,28.27-16.05,41.42-12.81,13.36-29.25,21.06-44.27,21.06Zm-2.35-112.04c-12.64,0-23.76,3.53-32.57,10.41-12.17,9.51-19.44,24.77-21.61,45.34-3.13,29.76,14.71,49.22,50.25,54.8,16.3,2.56,35.38-5.21,49.83-20.28,12.38-12.92,18.29-28.07,15.79-40.53-6.04-30.15-21.41-44.81-51.38-49.01-3.53-.49-6.98-.74-10.31-.74Z"/></g><path class="i" d="M77.53,48.54l10.25-2.85-2.85,10.25,9.1,5.4-9.1,5.4,2.85,10.2-10.25-2.8-5.4,9.05-5.4-9.05-10.2,2.8,2.8-10.2-9.05-5.4,9.05-5.4-2.8-10.25,10.2,2.85,5.4-9.1,5.4,9.1Zm-9.35,3.65l-7.2-2,2.05,7.2-6.65,3.95,6.6,3.95-1.95,7.2,7.15-2.05,3.95,6.65,3.95-6.65,7.2,2.05-2-7.2,6.6-3.95-6.65-3.95,2.05-7.2-7.2,2-1.2-2.05-2.75-4.55-3.95,6.6Z"/><g><path class="g" d="M60.97,91.84v1.62h-4.23v2.02h3.67v1.5h-3.67v3.62h-1.93v-8.76h6.16Z"/><path class="g" d="M65.91,91.84l3.28,8.76h-2l-.66-1.95h-3.28l-.69,1.95h-1.94l3.31-8.76h1.98Zm.11,5.37l-1.1-3.21h-.02l-1.14,3.21h2.27Z"/><path class="g" d="M71.41,98.44c.11,.2,.25,.37,.42,.5,.18,.13,.38,.22,.62,.28,.24,.06,.48,.09,.74,.09,.17,0,.36-.01,.55-.04,.2-.03,.38-.08,.55-.17s.31-.19,.43-.34c.11-.14,.17-.33,.17-.55,0-.24-.08-.43-.23-.58s-.35-.27-.59-.37-.52-.18-.83-.26c-.31-.07-.63-.16-.95-.25-.33-.08-.65-.18-.96-.3-.31-.12-.59-.27-.83-.46-.25-.19-.44-.42-.59-.71-.15-.28-.23-.62-.23-1.02,0-.45,.1-.84,.29-1.17s.44-.61,.75-.83c.31-.22,.66-.38,1.06-.49,.39-.11,.79-.16,1.18-.16,.46,0,.9,.05,1.32,.15,.42,.1,.8,.27,1.12,.5s.59,.52,.78,.88c.19,.36,.29,.79,.29,1.29h-1.87c-.02-.26-.07-.48-.17-.65-.09-.17-.22-.31-.38-.4s-.33-.17-.53-.21-.42-.06-.66-.06c-.16,0-.31,.02-.47,.05-.16,.03-.3,.09-.42,.17s-.23,.18-.31,.31c-.08,.12-.12,.28-.12,.47,0,.17,.03,.31,.1,.42s.19,.2,.39,.29c.19,.09,.46,.18,.8,.27,.34,.09,.78,.2,1.33,.34,.16,.03,.39,.09,.68,.18s.58,.22,.87,.41c.29,.19,.53,.44,.74,.75s.31,.72,.31,1.21c0,.4-.08,.77-.23,1.12s-.39,.64-.69,.89-.69,.44-1.14,.58c-.45,.14-.98,.21-1.58,.21-.48,0-.95-.06-1.41-.18-.45-.12-.85-.3-1.2-.56-.35-.25-.62-.58-.83-.97-.2-.39-.3-.86-.29-1.4h1.86c0,.29,.05,.54,.16,.75Z"/><path class="g" d="M84.57,91.84v1.62h-4.63v1.88h4.25v1.5h-4.25v2.15h4.72v1.62h-6.65v-8.76h6.55Z"/><path class="g" d="M91.31,91.84v8.76h-1.93v-8.76h1.93Z"/></g></g></g></g></svg>