<svg width="1438" height="290" viewBox="0 0 1438 290" fill="none" xmlns="http://www.w3.org/2000/svg">
<g clip-path="url(#clip0_123_156)">
<path d="M1438 0H0.699951V290H1438V0Z" fill="#262B6B"/>
<path d="M2.17995 290C6.34995 282.3 4.31995 275.35 0.699951 269.69V256.35C2.37995 256.72 4.25995 257.14 6.36995 257.63C38.2 265.04 11.27 245.64 0.699951 231.33V218.63C3.15995 217.77 6.93995 217.41 12.4 217.72C72.2599 221.06 89.1199 194.52 138.68 161.31C158.6 147.97 190.59 134.25 221.62 121.61C245.74 111.76 269.29 102.57 286.14 94.7C368.89 56.03 470.44 78.66 549.63 130.06C561.33 137.65 572.7 145.86 583.58 154.72C604.01 171.37 622.7 190.3 638.45 211.72C651.67 229.71 665.14 257.24 678.43 290H2.17995Z" fill="#22B573"/>
<path d="M857.26 290H0.699951V73.68C10.52 66.58 21.18 60.94 32.58 57.2C81.21 41.24 133.9 61.91 177.35 90.22C192.44 100.05 207.02 110.85 221.62 121.61C249.07 141.84 276.54 161.92 307.39 175.09C363.04 198.86 425.87 198.08 484.14 183.19C517.5 174.66 550.03 161.65 583.58 154.72C591.89 153 600.27 151.66 608.74 150.85C673.83 144.64 737.44 171.43 789.5 214.94C810.7 232.65 829.99 253.14 846.69 275.3C850.31 280.11 853.84 285.01 857.26 290Z" fill="#FFB000"/>
<path d="M1416.08 97.79C1422.12 95 1428.24 92.49 1434.44 90.25V290H730.27C740.25 263.17 756.47 238.83 779.28 221.82C782.6 219.34 786.01 217.05 789.5 214.94C833.78 188.09 891.2 189.32 942.61 199.96C998.07 211.44 1052.06 232.37 1108.66 234.45C1175.31 236.91 1240.91 212.6 1296.79 176.17C1336.7 150.14 1372.82 117.76 1416.08 97.79Z" fill="#CC3333"/>
<path d="M92.61 208.92V171.74H115.75V176.52H97.64V187.64H114.39V192.42H97.64V204.14H115.75V208.92H92.61Z" fill="#262B6B"/>
<path d="M160.12 184.42C162.08 186.48 163.04 189.3 163.04 192.87V208.92H158.21V193.63C158.21 188.6 155.75 185.73 151.72 185.73C147.49 185.73 144.53 188.95 144.53 193.73V208.92H139.75V193.73C139.75 188.7 137.23 185.73 133.21 185.73C128.98 185.73 125.97 188.95 125.97 193.83V208.92H121.14V181.95H125.87V185.92C127.48 182.95 130.45 181.19 134.02 181.24C137.64 181.24 141.01 183.1 142.47 186.27C144.28 183.2 148.05 181.24 152.28 181.24C155.55 181.24 158.17 182.3 160.13 184.41L160.12 184.42Z" fill="#262B6B"/>
<path d="M193.66 185.43C196.23 188.2 197.53 191.52 197.53 195.44C197.53 199.36 196.22 202.73 193.66 205.5C191.09 208.22 187.87 209.57 184 209.57C180.13 209.57 176.91 208.06 174.44 204.99V220.03H169.61V181.95H174.44V186.03C176.95 182.86 180.17 181.3 184.05 181.3C187.93 181.3 191.09 182.66 193.66 185.42V185.43ZM190.14 188.55C188.43 186.69 186.22 185.73 183.45 185.73C180.68 185.73 178.47 186.69 176.76 188.55C175.1 190.41 174.25 192.73 174.25 195.39C174.25 198.05 175.1 200.47 176.76 202.33C178.47 204.19 180.68 205.15 183.45 205.15C186.22 205.15 188.43 204.19 190.14 202.33C191.85 200.47 192.71 198.15 192.71 195.39C192.71 192.63 191.85 190.41 190.14 188.55Z" fill="#262B6B"/>
<path d="M202.75 208.92V181.95H207.33V185.92C208.89 182.8 211.51 181.24 215.08 181.24C216.14 181.24 217.19 181.39 218.25 181.64L217.8 186.32C216.84 186.02 215.89 185.87 214.98 185.87C210.7 185.87 207.59 188.84 207.59 194.62V208.91H202.76L202.75 208.92Z" fill="#262B6B"/>
<path d="M245.95 197.4H224.47C225.27 201.98 228.29 205.1 233.93 205.1C237.15 205.1 240.87 203.89 243.34 202.08L245.4 205.75C242.73 207.81 238.31 209.52 233.83 209.52C223.67 209.52 219.44 202.33 219.44 195.33C219.44 191.25 220.7 187.93 223.21 185.27C225.78 182.6 229.05 181.3 233.07 181.3C237.09 181.3 240.01 182.51 242.43 184.97C244.9 187.44 246.1 190.76 246.1 194.93C246.1 195.28 246.05 196.09 245.95 197.4ZM241.12 193.22C240.87 188.54 237.5 185.57 233.07 185.57C228.64 185.57 225.27 188.74 224.47 193.22H241.12Z" fill="#262B6B"/>
<path d="M251.35 208.92V181.95H256.08V185.77C257.79 182.75 260.66 181.24 264.63 181.24C267.65 181.24 270.16 182.2 272.23 184.16C274.29 186.12 275.3 188.89 275.3 192.56V208.91H270.52V193.92C270.52 188.69 267.7 185.72 263.63 185.72C261.47 185.72 259.66 186.47 258.25 188.03C256.89 189.59 256.19 191.55 256.19 193.97V208.91H251.36L251.35 208.92Z" fill="#262B6B"/>
<path d="M303.08 170.84H307.91V208.92H303.08V205.15C300.72 208.12 297.6 209.58 293.72 209.58C289.84 209.58 286.53 208.22 283.96 205.51C281.39 202.74 280.14 199.37 280.14 195.4C280.14 191.43 281.4 188.16 283.96 185.44C286.53 182.67 289.75 181.32 293.62 181.32C297.49 181.32 300.61 182.83 303.08 185.9V170.86V170.84ZM300.87 188.55C299.21 186.69 297 185.73 294.23 185.73C291.46 185.73 289.25 186.69 287.54 188.55C285.88 190.41 285.02 192.73 285.02 195.39C285.02 198.05 285.88 200.47 287.54 202.33C289.25 204.19 291.46 205.15 294.23 205.15C297 205.15 299.21 204.19 300.87 202.33C302.58 200.47 303.44 198.15 303.44 195.39C303.44 192.63 302.58 190.41 300.87 188.55Z" fill="#262B6B"/>
<path d="M339.65 197.4H318.17C318.97 201.98 321.99 205.1 327.63 205.1C330.85 205.1 334.57 203.89 337.04 202.08L339.1 205.75C336.43 207.81 332.01 209.52 327.53 209.52C317.37 209.52 313.14 202.33 313.14 195.33C313.14 191.25 314.4 187.93 316.91 185.27C319.48 182.6 322.75 181.3 326.77 181.3C330.79 181.3 333.71 182.51 336.13 184.97C338.6 187.44 339.8 190.76 339.8 194.93C339.8 195.28 339.75 196.09 339.65 197.4ZM334.82 193.22C334.57 188.54 331.2 185.57 326.77 185.57C322.34 185.57 318.97 188.74 318.17 193.22H334.82Z" fill="#262B6B"/>
<path d="M366.35 170.84H371.18V208.92H366.35V205.15C363.99 208.12 360.87 209.58 356.99 209.58C353.11 209.58 349.8 208.22 347.23 205.51C344.66 202.74 343.41 199.37 343.41 195.4C343.41 191.43 344.67 188.16 347.23 185.44C349.8 182.67 353.02 181.32 356.89 181.32C360.76 181.32 363.88 182.83 366.35 185.9V170.86V170.84ZM364.14 188.55C362.48 186.69 360.27 185.73 357.5 185.73C354.73 185.73 352.52 186.69 350.81 188.55C349.15 190.41 348.29 192.73 348.29 195.39C348.29 198.05 349.15 200.47 350.81 202.33C352.52 204.19 354.73 205.15 357.5 205.15C360.27 205.15 362.48 204.19 364.14 202.33C365.85 200.47 366.71 198.15 366.71 195.39C366.71 192.63 365.85 190.41 364.14 188.55Z" fill="#262B6B"/>
<path d="M380.36 205.5C377.69 202.73 376.39 199.36 376.39 195.39C376.39 191.42 377.7 188.1 380.36 185.38C383.03 182.61 386.45 181.26 390.57 181.26C394.69 181.26 398.02 182.62 400.68 185.38C403.35 188.15 404.7 191.47 404.7 195.39C404.7 199.31 403.34 202.73 400.68 205.5C398.01 208.22 394.64 209.57 390.57 209.57C386.5 209.57 383.02 208.21 380.36 205.5ZM397.16 188.6C395.35 186.69 393.14 185.73 390.57 185.73C388 185.73 385.79 186.69 383.98 188.6C382.17 190.46 381.26 192.73 381.26 195.39C381.26 198.05 382.17 200.37 383.98 202.28C385.79 204.19 388 205.15 390.57 205.15C393.14 205.15 395.35 204.19 397.16 202.28C398.97 200.37 399.88 198.05 399.88 195.39C399.88 192.73 398.97 190.46 397.16 188.6Z" fill="#262B6B"/>
<path d="M409.83 208.92V181.95H414.41V185.92C415.97 182.8 418.59 181.24 422.16 181.24C423.22 181.24 424.27 181.39 425.33 181.64L424.88 186.32C423.92 186.02 422.97 185.87 422.06 185.87C417.78 185.87 414.67 188.84 414.67 194.62V208.91H409.84L409.83 208.92Z" fill="#262B6B"/>
<path d="M420.26 215.11L444.01 167.42H448.74L424.99 215.11H420.26Z" fill="#262B6B"/>
<path d="M468.72 181.96H473.35V208.93H468.72V205.11C466.3 208.08 463.14 209.59 459.21 209.59C455.28 209.59 452.12 208.23 449.55 205.47C446.98 202.7 445.73 199.33 445.73 195.26C445.73 191.19 446.99 187.91 449.55 185.3C452.12 182.63 455.34 181.33 459.21 181.33C463.08 181.33 466.2 182.84 468.72 185.91V181.99V181.96ZM466.46 188.55C464.75 186.69 462.54 185.73 459.77 185.73C457 185.73 454.79 186.69 453.13 188.55C451.47 190.41 450.61 192.73 450.61 195.44C450.61 198.15 451.47 200.47 453.13 202.33C454.79 204.19 457 205.15 459.77 205.15C462.54 205.15 464.75 204.19 466.46 202.33C468.17 200.47 469.03 198.15 469.03 195.39C469.03 192.63 468.17 190.41 466.46 188.55Z" fill="#262B6B"/>
<path d="M1249.93 104.85C1250.47 105.04 1251.06 105.15 1251.55 105.43C1252.95 106.24 1253.58 107.92 1253.1 109.4C1252.59 111 1251.18 111.94 1249.5 111.89C1247.64 111.84 1246.15 110.05 1246.28 108.25C1246.4 106.48 1247.28 105.42 1249.01 105C1249.13 104.97 1249.25 104.9 1249.37 104.85C1249.56 104.85 1249.75 104.85 1249.93 104.85Z" fill="white"/>
<path d="M1236.3 104.93H1242.97C1243.9 105.32 1244.06 105.75 1243.63 106.67C1241.21 111.87 1238.79 117.07 1236.36 122.26C1234.65 125.92 1232.94 129.57 1231.23 133.23C1229.84 136.21 1228.42 139.17 1227.1 142.18C1226.65 143.2 1225.44 143.3 1224.68 142.95C1224.51 142.87 1224.36 142.67 1224.27 142.49C1223.46 140.8 1222.66 139.09 1221.86 137.39C1220.66 134.85 1219.46 132.31 1218.27 129.77C1217.01 127.08 1215.77 124.38 1214.51 121.68C1212.95 118.32 1211.39 114.97 1209.82 111.61C1209.05 109.97 1208.29 108.32 1207.52 106.67C1207.43 106.48 1207.38 106.26 1207.31 106.06C1207.38 105.26 1207.74 104.94 1208.56 104.93C1210.69 104.93 1212.81 104.93 1214.94 104.92C1215.42 105.04 1215.68 105.37 1215.88 105.81C1219.01 112.73 1222.16 119.65 1225.31 126.56C1225.37 126.69 1225.52 126.79 1225.63 126.9C1225.73 126.78 1225.88 126.68 1225.94 126.55C1229.05 119.67 1232.15 112.79 1235.25 105.9C1235.47 105.42 1235.71 105.01 1236.28 104.92L1236.3 104.93Z" fill="white"/>
<path d="M1283.76 114.23C1284.62 114.67 1284.71 114.99 1284.23 115.99C1281.85 120.97 1279.46 125.95 1277.08 130.93C1275.29 134.67 1273.48 138.4 1271.73 142.16C1271.25 143.19 1270.06 143.43 1269.25 142.96C1269.04 142.84 1268.85 142.62 1268.74 142.4C1267.51 139.87 1266.3 137.32 1265.08 134.78C1264.03 132.59 1262.96 130.4 1261.91 128.2C1260.7 125.66 1259.51 123.11 1258.3 120.56C1257.53 118.93 1256.74 117.31 1255.97 115.68C1255.63 114.97 1255.92 114.41 1256.69 114.22C1257.14 114.14 1257.59 114.19 1258.04 114.19C1259.61 114.19 1261.18 114.19 1262.76 114.19C1262.93 114.19 1263.1 114.16 1263.27 114.22C1263.78 114.42 1264.07 114.79 1264.28 115.29C1266.1 119.66 1267.95 124.02 1269.79 128.39C1269.84 128.5 1269.88 128.62 1269.95 128.72C1269.99 128.78 1270.08 128.87 1270.11 128.86C1270.18 128.83 1270.25 128.76 1270.28 128.69C1271.18 126.66 1272.07 124.62 1272.98 122.58C1273.96 120.4 1274.96 118.22 1275.95 116.04C1276.08 115.76 1276.21 115.49 1276.32 115.21C1276.53 114.66 1276.9 114.31 1277.48 114.22C1277.94 114.14 1278.41 114.19 1278.88 114.19C1280.36 114.19 1281.84 114.19 1283.32 114.19C1283.47 114.19 1283.63 114.16 1283.78 114.23H1283.76Z" fill="white"/>
<path d="M1245.97 115.18C1246.12 114.65 1246.46 114.32 1247.01 114.23C1248.33 114.16 1249.65 114.21 1250.97 114.2C1251.5 114.2 1252.03 114.15 1252.55 114.23C1253.09 114.44 1253.45 114.8 1253.6 115.37C1253.66 115.52 1253.63 115.68 1253.63 115.83C1253.63 124.41 1253.63 132.99 1253.63 141.57C1253.63 141.72 1253.66 141.88 1253.6 142.03C1253.42 142.56 1253.11 142.98 1252.55 143.17C1251.74 143.25 1250.94 143.2 1250.13 143.2C1249.09 143.2 1248.05 143.25 1247.01 143.17C1246.47 143.07 1246.16 142.71 1245.97 142.22C1245.9 142.07 1245.93 141.91 1245.93 141.76C1245.93 133.05 1245.93 124.35 1245.93 115.64C1245.93 115.49 1245.9 115.33 1245.97 115.18Z" fill="white"/>
<path d="M1307.86 125.45C1307.86 125.31 1307.89 125.17 1307.83 125.03C1307.6 123.75 1307.49 122.44 1307.13 121.2C1306.23 118.13 1304.26 115.99 1301.22 114.9C1299.1 114.14 1296.9 113.96 1294.66 114.12C1292.32 114.29 1290.04 114.69 1287.82 115.45C1287.06 115.71 1286.79 116 1286.9 116.77C1287.08 118.07 1287.32 119.36 1287.63 120.63C1287.84 121.48 1288.25 121.64 1289.08 121.44C1289.3 121.39 1289.52 121.31 1289.75 121.25C1291.71 120.76 1293.67 120.42 1295.71 120.49C1296.69 120.52 1297.62 120.66 1298.46 121.15C1299.98 122.02 1300.66 123.4 1300.8 125.11C1300.84 125.65 1300.61 125.65 1300.25 125.56C1297.74 124.89 1295.19 124.73 1292.62 125.12C1290.63 125.42 1288.77 126.07 1287.23 127.38C1285.53 128.83 1284.47 130.66 1284.36 132.97C1284.29 134.59 1284.4 136.18 1285.03 137.7C1285.63 139.16 1286.48 140.42 1287.77 141.37C1289.26 142.46 1290.93 143.08 1292.76 143.11C1294.1 143.13 1295.48 143.08 1296.79 142.81C1298.71 142.4 1300.44 141.48 1301.93 140.16C1302.15 139.97 1302.26 140.02 1302.38 140.26C1302.59 140.65 1302.78 141.06 1303.05 141.4C1303.73 142.24 1304.72 142.6 1305.74 142.76C1306.89 142.94 1307.48 142.59 1307.84 141.75C1307.9 141.62 1307.87 141.47 1307.87 141.33C1307.87 136.04 1307.87 130.74 1307.87 125.45H1307.86ZM1300.61 134.17C1300.58 134.5 1300.5 134.86 1300.32 135.12C1299.08 136.95 1296.42 137.95 1294.29 137.42C1292.38 136.95 1291.23 135.06 1291.6 133C1291.94 131.11 1293.28 129.96 1295.39 129.72C1297.07 129.53 1298.68 129.79 1300.26 130.35C1300.54 130.45 1300.65 130.58 1300.64 130.88C1300.62 131.46 1300.64 132.04 1300.64 132.61C1300.64 133.13 1300.67 133.64 1300.63 134.16L1300.61 134.17Z" fill="white"/>
<path d="M1199.34 136.06V142.8C1199.34 143.08 1199.21 143.34 1199.01 143.51C1198.89 143.57 1198.78 143.63 1198.66 143.7C1198.62 143.71 1198.58 143.72 1198.53 143.73C1198.49 143.73 1198.44 143.74 1198.4 143.74H1198.24C1195.25 143.84 1192.25 143.74 1189.26 143.79C1188.82 143.79 1188.38 143.7 1187.95 143.86C1186.95 144.05 1186.8 144.65 1187.02 145.55C1188.05 149.72 1189.95 153.43 1192.82 156.63C1193.7 157.61 1193.68 157.9 1192.76 158.82C1191.4 160.18 1190.05 161.54 1188.69 162.89C1187.95 163.62 1187.4 163.6 1186.71 162.83C1182.68 158.29 1179.92 153.09 1178.49 147.18C1177.63 143.65 1177.49 140.05 1177.76 136.48C1178.09 132.01 1179.37 127.73 1181.45 123.73C1182.88 120.98 1184.59 118.42 1186.75 116.17C1187.43 115.46 1188.19 115.47 1188.89 116.17C1190.25 117.52 1191.6 118.89 1192.97 120.24C1193.62 120.88 1193.6 121.46 1192.98 122.14C1190 125.41 1188.06 129.24 1186.99 133.51C1186.85 134.08 1186.77 134.77 1187.58 135.04C1189.44 135.2 1191.29 135.07 1193.15 135.11C1194.64 135.14 1196.13 135.05 1197.62 135.13H1198.41C1198.87 135.13 1199.25 135.46 1199.33 135.89C1199.34 135.95 1199.35 136.01 1199.35 136.07L1199.34 136.06Z" fill="white"/>
<path d="M1199.34 135.89V136.05C1199.34 135.99 1199.34 135.93 1199.32 135.87H1199.34V135.89Z" fill="white"/>
<path d="M1157.32 145.99C1157.74 146.25 1158.1 146.38 1158.35 146.63C1165.8 154.05 1173.24 161.49 1180.67 168.93C1181.46 169.72 1181.45 170.14 1180.67 170.92C1179.29 172.3 1177.91 173.68 1176.53 175.05C1175.69 175.89 1175.38 175.9 1174.51 175.07C1173.72 174.32 1172.96 173.53 1172.19 172.76C1167.61 168.19 1163.04 163.61 1158.46 159.04C1157.54 158.12 1156.96 158.12 1156.03 159.05C1150.74 164.33 1145.46 169.61 1140.17 174.9C1139.11 175.96 1138.88 175.96 1137.83 174.92C1136.57 173.67 1135.32 172.42 1134.07 171.16C1133.16 170.24 1133.16 169.75 1134.04 168.86C1141.44 161.47 1148.83 154.08 1156.24 146.69C1156.52 146.41 1156.93 146.24 1157.34 145.99H1157.32Z" fill="white"/>
<path d="M1139.08 103.28C1139.53 103.6 1139.99 103.84 1140.34 104.19C1145.62 109.44 1150.88 114.7 1156.14 119.96C1157.17 120.99 1157.42 120.99 1158.44 119.99C1163.24 115.24 1168.05 110.48 1172.85 105.72C1173.43 105.14 1173.96 104.5 1174.53 103.91C1175.17 103.26 1175.95 103.26 1176.61 103.91C1177.97 105.26 1179.33 106.62 1180.68 107.98C1181.46 108.77 1181.44 109.17 1180.65 109.97C1173.21 117.4 1165.78 124.83 1158.34 132.27C1157.48 133.13 1156.98 133.13 1156.12 132.27C1148.81 124.96 1141.49 117.66 1134.18 110.35C1133.09 109.26 1133.1 108.82 1134.18 107.73C1135.45 106.46 1136.72 105.17 1138.01 103.92C1138.26 103.68 1138.62 103.55 1139.07 103.28H1139.08Z" fill="white"/>
<path d="M1136.88 142.11C1136.37 149.03 1133.89 155.23 1129.65 160.72C1129.06 161.49 1128.37 162.17 1127.72 162.89C1127.13 163.54 1126.53 163.64 1125.86 162.97C1124.49 161.58 1123.1 160.22 1121.73 158.83C1120.95 158.04 1120.95 157.54 1121.7 156.72C1124.66 153.5 1126.57 149.73 1127.64 145.5C1127.85 144.66 1127.64 144.14 1126.83 143.86C1126.52 143.69 1126.19 143.78 1125.88 143.77C1125.69 143.77 1125.5 143.77 1125.31 143.77C1122.53 143.77 1119.75 143.77 1116.97 143.77C1116.8 143.77 1116.63 143.79 1116.47 143.79C1116.28 143.75 1116.11 143.68 1115.95 143.58C1115.55 143.32 1115.28 142.86 1115.28 142.35V139.6C1115.28 138.65 1115.3 137.71 1115.3 136.76C1115.3 136.43 1115.35 136.12 1115.47 135.87C1115.62 135.61 1115.84 135.4 1116.11 135.27C1116.24 135.22 1116.38 135.19 1116.54 135.17C1116.67 135.15 1116.81 135.13 1116.94 135.12C1117.89 135.03 1118.84 135.11 1119.79 135.1C1121.97 135.08 1124.15 135.1 1126.33 135.1C1126.62 135.1 1126.92 135.17 1127.2 135.02C1128.14 134.35 1127.66 133.5 1127.45 132.72C1126.38 128.71 1124.42 125.18 1121.63 122.1C1120.96 121.36 1121.1 120.78 1121.75 120.15C1123.1 118.83 1124.43 117.48 1125.76 116.15C1126.44 115.48 1127.23 115.47 1127.9 116.19C1131.16 119.76 1133.58 123.82 1135.15 128.41C1136.68 132.87 1137.21 137.45 1136.87 142.11H1136.88Z" fill="white"/>
<path d="M1125.3 143.77C1125.2 143.79 1125.09 143.81 1124.98 143.81H1116.75C1116.65 143.81 1116.56 143.81 1116.47 143.78C1116.64 143.78 1116.81 143.76 1116.97 143.76C1119.75 143.76 1122.53 143.76 1125.31 143.76L1125.3 143.77Z" fill="white"/>
<path d="M1199.01 143.51C1198.91 143.6 1198.79 143.66 1198.66 143.7C1198.78 143.64 1198.89 143.57 1199.01 143.51Z" fill="white"/>
<path d="M1216.09 152.86L1215.08 158.57H1224.81L1224.17 162.36H1214.4L1213.28 168.6H1223.97L1223.26 172.56H1208.31L1212.47 148.9H1227.37L1226.71 152.86H1216.09Z" fill="white"/>
<path d="M1229.06 154.66H1232.9L1232.67 156.18H1232.74C1233.25 155.53 1233.9 155.03 1234.7 154.68C1235.5 154.33 1236.35 154.15 1237.24 154.15C1238.21 154.15 1239.1 154.36 1239.9 154.77C1240.71 155.18 1241.28 155.72 1241.62 156.38H1241.69C1243.08 154.9 1244.76 154.15 1246.75 154.15C1248.51 154.15 1249.93 154.64 1251.02 155.62C1252.11 156.6 1252.65 157.87 1252.65 159.45C1252.65 159.86 1252.62 160.26 1252.55 160.67L1250.45 172.57H1246.44L1248.45 161.12C1248.5 160.84 1248.53 160.59 1248.53 160.34C1248.53 159.6 1248.3 159.02 1247.85 158.58C1247.4 158.14 1246.79 157.93 1246.03 157.93C1245 157.93 1244.12 158.25 1243.41 158.9C1242.7 159.54 1242.24 160.43 1242.03 161.55L1240.08 172.57H1236.22L1238.25 161.12C1238.26 161.02 1238.27 160.91 1238.28 160.8C1238.29 160.68 1238.3 160.6 1238.3 160.54C1238.3 160.48 1238.3 160.43 1238.3 160.38C1238.3 159.62 1238.08 159.02 1237.65 158.59C1237.21 158.16 1236.6 157.94 1235.81 157.94C1234.78 157.94 1233.9 158.26 1233.19 158.91C1232.48 159.55 1232.02 160.44 1231.81 161.56L1229.85 172.58H1225.86L1229.01 154.68L1229.06 154.66Z" fill="white"/>
<path d="M1256.7 154.66H1260.69L1260.44 156H1260.51C1261.09 155.42 1261.81 154.96 1262.67 154.64C1263.53 154.32 1264.43 154.15 1265.38 154.15C1267.39 154.15 1269.05 154.91 1270.34 156.42C1271.63 157.93 1272.28 159.85 1272.28 162.19C1272.31 164.13 1271.91 165.94 1271.07 167.63C1270.23 169.32 1269.08 170.67 1267.61 171.66C1266.15 172.65 1264.57 173.12 1262.89 173.08C1261.89 173.08 1260.95 172.9 1260.08 172.54C1259.21 172.18 1258.51 171.69 1257.99 171.09H1257.92L1256.32 180.18H1252.21L1256.7 154.67V154.66ZM1268.15 162.18C1268.15 160.84 1267.82 159.79 1267.16 159.04C1266.5 158.29 1265.57 157.92 1264.37 157.92C1263.17 157.92 1262.12 158.29 1261.22 159.04C1260.32 159.79 1259.76 160.75 1259.54 161.91L1258.73 166.65C1258.94 167.41 1259.4 168.04 1260.12 168.53C1260.83 169.02 1261.65 169.27 1262.58 169.27C1264.18 169.27 1265.5 168.6 1266.56 167.27C1267.62 165.94 1268.15 164.24 1268.15 162.18Z" fill="white"/>
<path d="M1276.23 154.66H1280.11L1279.81 156.21H1279.88C1280.86 154.94 1282.19 154.31 1283.87 154.31C1284.6 154.31 1285.32 154.43 1286.03 154.66L1285.07 158.57C1284.5 158.42 1283.87 158.34 1283.19 158.34C1282.05 158.34 1281.11 158.71 1280.38 159.45C1279.65 160.19 1279.16 161.27 1278.9 162.69L1277.17 172.56H1273.05L1276.23 154.66Z" fill="white"/>
<path d="M1302.41 162.32C1302.41 163.17 1302.35 164 1302.24 164.83H1289.16V165.03C1289.09 166.44 1289.42 167.54 1290.14 168.34C1290.86 169.14 1291.9 169.54 1293.25 169.54C1294.92 169.54 1296.52 168.54 1298.05 166.55L1300.95 168.93C1299.99 170.26 1298.83 171.29 1297.47 172.01C1296.11 172.73 1294.65 173.09 1293.11 173.09C1290.72 173.09 1288.8 172.36 1287.34 170.89C1285.88 169.42 1285.15 167.47 1285.15 165.04C1285.13 163.56 1285.36 162.13 1285.85 160.78C1286.34 159.42 1287.01 158.26 1287.85 157.28C1288.7 156.31 1289.71 155.54 1290.9 154.97C1292.09 154.4 1293.33 154.14 1294.63 154.17C1296.96 154.17 1298.84 154.92 1300.26 156.41C1301.68 157.91 1302.4 159.88 1302.4 162.33L1302.41 162.32ZM1294.64 157.7C1293.46 157.7 1292.42 158.07 1291.51 158.82C1290.6 159.57 1289.94 160.56 1289.55 161.79H1298.51C1298.52 160.51 1298.17 159.51 1297.46 158.79C1296.75 158.06 1295.81 157.7 1294.65 157.7H1294.64Z" fill="white"/>
<path d="M1306.35 154.66H1310.31L1310.03 156.24H1310.1C1310.7 155.6 1311.45 155.09 1312.34 154.71C1313.22 154.33 1314.16 154.14 1315.14 154.14C1316.89 154.14 1318.3 154.65 1319.36 155.68C1320.43 156.71 1320.96 158.06 1320.96 159.75C1320.96 160.28 1320.91 160.76 1320.81 161.2L1318.83 172.55H1314.71L1316.67 161.46C1316.71 161.2 1316.74 160.9 1316.74 160.59C1316.74 159.73 1316.5 159.08 1316.01 158.63C1315.52 158.18 1314.81 157.95 1313.87 157.95C1312.68 157.95 1311.66 158.31 1310.81 159.03C1309.96 159.75 1309.42 160.7 1309.2 161.88L1307.34 172.55H1303.21L1306.36 154.65L1306.35 154.66Z" fill="white"/>
<path d="M1322.49 165.12C1322.47 163.59 1322.7 162.14 1323.19 160.76C1323.68 159.39 1324.35 158.21 1325.19 157.24C1326.04 156.27 1327.04 155.5 1328.19 154.95C1329.35 154.4 1330.55 154.13 1331.8 154.15C1333.77 154.15 1335.42 154.72 1336.77 155.87H1336.84L1338.26 147.9H1342.39L1338.03 172.56H1334.27L1334.58 170.91H1334.51C1333.94 171.58 1333.23 172.1 1332.38 172.48C1331.53 172.85 1330.61 173.04 1329.61 173.04C1327.43 173.04 1325.7 172.33 1324.41 170.9C1323.12 169.48 1322.48 167.55 1322.48 165.12H1322.49ZM1335.13 165.57L1336.07 160.22C1335.74 159.53 1335.22 158.97 1334.5 158.55C1333.79 158.13 1332.97 157.92 1332.04 157.92C1330.52 157.92 1329.23 158.59 1328.18 159.92C1327.12 161.26 1326.6 162.94 1326.6 164.98C1326.6 166.32 1326.94 167.36 1327.61 168.1C1328.29 168.84 1329.21 169.21 1330.39 169.21C1331.57 169.21 1332.55 168.85 1333.46 168.14C1334.42 167.36 1334.97 166.5 1335.13 165.57Z" fill="white"/>
<path d="M1359.19 162.32C1359.19 163.17 1359.13 164 1359.02 164.83H1345.94V165.03C1345.87 166.44 1346.2 167.54 1346.92 168.34C1347.64 169.14 1348.68 169.54 1350.03 169.54C1351.7 169.54 1353.3 168.54 1354.83 166.55L1357.73 168.93C1356.77 170.26 1355.61 171.29 1354.25 172.01C1352.89 172.73 1351.43 173.09 1349.89 173.09C1347.5 173.09 1345.58 172.36 1344.12 170.89C1342.66 169.42 1341.93 167.47 1341.93 165.04C1341.91 163.56 1342.14 162.13 1342.63 160.78C1343.12 159.42 1343.79 158.26 1344.63 157.28C1345.48 156.31 1346.49 155.54 1347.68 154.97C1348.87 154.4 1350.11 154.14 1351.41 154.17C1353.74 154.17 1355.62 154.92 1357.04 156.41C1358.46 157.91 1359.18 159.88 1359.18 162.33L1359.19 162.32ZM1351.42 157.7C1350.24 157.7 1349.2 158.07 1348.29 158.82C1347.38 159.57 1346.72 160.56 1346.33 161.79H1355.29C1355.3 160.51 1354.95 159.51 1354.24 158.79C1353.53 158.06 1352.59 157.7 1351.43 157.7H1351.42Z" fill="white"/>
<path d="M94.1299 156V86.8H99.9399V118.82H138.52V86.8H144.23V156H138.52V124.26H99.9399V156H94.1299Z" fill="white"/>
<path d="M223.28 156H217.66V85.3H223.28V155.99V156Z" fill="white"/>
<path d="M277.82 105.9H283.25V155.99H277.82V146.25C273.61 153.09 266.4 157.21 258.06 157.21C250.94 157.21 245.05 154.68 240.27 149.63C235.49 144.48 233.15 138.21 233.15 130.72C233.15 123.23 235.49 117.14 240.17 112.18C244.95 107.22 250.84 104.69 258.05 104.69C266.38 104.69 273.59 108.72 277.81 115.55V105.91L277.82 105.9ZM272.67 145.88C276.41 141.76 278.29 136.7 278.29 130.71C278.29 124.72 276.42 119.94 272.67 115.92C268.92 111.89 264.15 109.83 258.34 109.83C252.53 109.83 247.85 111.89 244.2 115.92C240.55 119.95 238.77 125 238.77 130.9C238.77 136.8 240.55 141.95 244.2 145.97C247.85 149.99 252.63 152.06 258.34 152.06C264.05 152.06 268.92 150 272.67 145.88Z" fill="white"/>
<path d="M304.83 154.13C304.83 158.91 301.55 163.31 295 167.43L293.22 164.9C297.34 162 299.77 159.38 300.62 157.03C300.06 157.31 299.5 157.4 299.03 157.4C296.88 157.4 295 155.43 295 153.19C295 150.66 297.15 148.6 299.87 148.6C302.77 148.6 304.83 151.03 304.83 154.12V154.13Z" fill="white"/>
<path d="M209.77 127.44V132.12C209.77 132.32 209.68 132.49 209.54 132.61C209.46 132.65 209.38 132.7 209.3 132.74C209.27 132.74 209.24 132.75 209.21 132.76C209.18 132.76 209.15 132.76 209.12 132.76H209.01C206.93 132.83 204.85 132.76 202.78 132.79C202.48 132.79 202.17 132.73 201.87 132.84C201.18 132.97 201.07 133.39 201.22 134.01C201.93 136.91 203.25 139.48 205.25 141.7C205.86 142.38 205.85 142.58 205.21 143.22C204.27 144.16 203.33 145.11 202.38 146.05C201.87 146.56 201.48 146.55 201.01 146.01C198.21 142.86 196.3 139.25 195.3 135.15C194.71 132.7 194.61 130.2 194.79 127.72C195.02 124.62 195.91 121.65 197.35 118.87C198.34 116.96 199.53 115.18 201.03 113.62C201.5 113.13 202.03 113.14 202.51 113.62C203.46 114.56 204.39 115.51 205.34 116.44C205.79 116.89 205.77 117.29 205.34 117.76C203.27 120.03 201.92 122.69 201.18 125.65C201.08 126.05 201.02 126.53 201.59 126.71C202.88 126.82 204.17 126.73 205.46 126.76C206.49 126.78 207.53 126.72 208.57 126.78H209.12C209.44 126.78 209.7 127.01 209.76 127.31C209.76 127.35 209.77 127.39 209.77 127.43V127.44Z" fill="white"/>
<path d="M209.77 127.33V127.44C209.77 127.44 209.77 127.36 209.76 127.32H209.77V127.33Z" fill="white"/>
<path d="M180.59 134.34C180.88 134.52 181.13 134.61 181.3 134.78C186.47 139.93 191.64 145.1 196.8 150.26C197.35 150.81 197.34 151.1 196.8 151.64C195.84 152.6 194.89 153.56 193.93 154.51C193.35 155.09 193.13 155.1 192.52 154.52C191.97 154 191.44 153.45 190.91 152.91C187.73 149.74 184.56 146.56 181.38 143.39C180.74 142.75 180.34 142.75 179.69 143.39C176.02 147.06 172.35 150.73 168.68 154.39C167.95 155.12 167.78 155.13 167.05 154.4C166.18 153.53 165.31 152.66 164.44 151.79C163.81 151.15 163.81 150.81 164.42 150.19C169.56 145.06 174.69 139.92 179.83 134.8C180.03 134.6 180.31 134.49 180.59 134.32V134.34Z" fill="white"/>
<path d="M167.93 104.69C168.24 104.91 168.56 105.08 168.81 105.33C172.47 108.98 176.13 112.63 179.78 116.28C180.5 117 180.67 117 181.37 116.3C184.71 113 188.04 109.7 191.37 106.39C191.78 105.99 192.14 105.54 192.54 105.13C192.98 104.68 193.53 104.68 193.98 105.13C194.93 106.07 195.87 107.01 196.81 107.96C197.35 108.51 197.34 108.79 196.79 109.34C191.63 114.5 186.46 119.66 181.3 124.82C180.7 125.42 180.36 125.41 179.76 124.82C174.68 119.75 169.61 114.67 164.53 109.6C163.77 108.84 163.78 108.54 164.53 107.78C165.41 106.9 166.29 106 167.19 105.13C167.36 104.96 167.62 104.87 167.93 104.69Z" fill="white"/>
<path d="M166.4 131.64C166.05 136.44 164.32 140.75 161.38 144.56C160.97 145.09 160.49 145.57 160.04 146.07C159.63 146.52 159.21 146.59 158.75 146.12C157.8 145.16 156.83 144.21 155.88 143.25C155.34 142.7 155.34 142.35 155.86 141.79C157.92 139.55 159.24 136.93 159.99 134C160.14 133.42 159.99 133.06 159.43 132.86C159.22 132.74 158.99 132.8 158.77 132.8C158.64 132.8 158.51 132.8 158.37 132.8C156.44 132.8 154.51 132.8 152.58 132.8C152.46 132.8 152.35 132.81 152.23 132.81C152.1 132.78 151.98 132.73 151.87 132.66C151.59 132.48 151.4 132.16 151.4 131.8V129.89C151.4 129.23 151.41 128.57 151.42 127.92C151.42 127.69 151.45 127.48 151.54 127.3C151.64 127.12 151.8 126.97 151.98 126.88C152.07 126.85 152.17 126.82 152.28 126.81C152.37 126.8 152.47 126.79 152.56 126.78C153.22 126.72 153.88 126.78 154.54 126.77C156.05 126.76 157.57 126.77 159.08 126.77C159.28 126.77 159.49 126.82 159.68 126.72C160.33 126.26 160 125.66 159.85 125.13C159.1 122.35 157.74 119.89 155.81 117.76C155.34 117.25 155.44 116.85 155.89 116.41C156.83 115.49 157.75 114.56 158.68 113.63C159.15 113.16 159.7 113.16 160.16 113.66C162.43 116.14 164.1 118.96 165.2 122.14C166.26 125.23 166.63 128.42 166.4 131.65V131.64Z" fill="white"/>
<path d="M158.36 132.8C158.29 132.82 158.21 132.83 158.13 132.83H152.41C152.34 132.83 152.28 132.83 152.22 132.81C152.34 132.81 152.45 132.8 152.57 132.8C154.5 132.8 156.43 132.8 158.36 132.8Z" fill="white"/>
<path d="M209.54 132.62C209.47 132.68 209.39 132.72 209.3 132.75C209.38 132.71 209.46 132.66 209.54 132.62Z" fill="white"/>
</g>
<rect x="571.05" y="177.087" width="302.397" height="76.0456" rx="38.0228" fill="white"/>
<path d="M611.067 203.894V226.064H615.507V218.414H618.927C621.657 218.414 623.697 217.724 625.047 216.374C626.397 214.994 627.087 213.284 627.087 211.214C627.087 209.174 626.427 207.434 625.107 206.024C623.817 204.614 621.867 203.894 619.257 203.894H611.067ZM615.507 214.394V208.004H619.317C621.327 208.004 622.557 209.384 622.557 211.154C622.557 212.954 621.357 214.394 619.077 214.394H615.507ZM628.524 217.874C628.524 220.304 629.334 222.344 630.984 223.994C632.634 225.644 634.734 226.484 637.284 226.484C639.834 226.484 641.934 225.644 643.584 223.994C645.234 222.344 646.044 220.304 646.044 217.874C646.044 215.474 645.234 213.434 643.584 211.784C641.934 210.104 639.834 209.264 637.284 209.264C634.734 209.264 632.634 210.104 630.984 211.784C629.334 213.434 628.524 215.474 628.524 217.874ZM634.044 221.204C633.174 220.274 632.754 219.164 632.754 217.874C632.754 216.584 633.174 215.474 634.044 214.574C634.914 213.674 635.994 213.224 637.284 213.224C638.574 213.224 639.624 213.674 640.494 214.574C641.364 215.474 641.814 216.584 641.814 217.874C641.814 219.164 641.364 220.274 640.494 221.204C639.624 222.104 638.574 222.554 637.284 222.554C635.994 222.554 634.914 222.104 634.044 221.204ZM654.366 226.484C656.316 226.484 657.906 226.004 659.076 225.014C660.276 224.024 660.876 222.764 660.876 221.234C660.876 219.434 659.946 218.054 658.116 217.094C657.666 216.854 656.346 216.314 654.186 215.504C653.226 215.174 652.746 214.694 652.746 214.004C652.746 213.254 653.496 212.624 654.606 212.624C655.956 212.624 657.216 213.164 658.356 214.244L660.456 211.514C658.956 209.954 657.036 209.174 654.726 209.174C652.896 209.174 651.396 209.624 650.286 210.554C649.176 211.484 648.606 212.654 648.606 214.094C648.606 216.014 649.536 217.424 651.426 218.324C651.786 218.504 652.476 218.804 653.526 219.194C654.576 219.584 655.206 219.824 655.476 219.944C656.256 220.304 656.646 220.784 656.646 221.354C656.646 222.284 655.686 222.944 654.396 222.944C652.746 222.944 651.036 222.074 649.866 220.664L647.616 223.334C649.266 225.434 651.516 226.484 654.366 226.484ZM674.085 221.774C673.095 222.344 672.165 222.614 671.355 222.614C669.825 222.614 669.045 221.654 669.045 219.734V213.254H674.445V209.714H669.045V203.924H664.845V209.714H662.145V213.254H664.815V220.004C664.815 224.234 666.765 226.454 670.515 226.454C672.405 226.454 673.995 226.004 675.345 225.104L674.085 221.774ZM686.383 207.284L689.203 202.004H684.493L682.633 207.284H686.383ZM684.643 226.454C689.323 226.454 692.143 223.754 692.143 219.164V209.714H687.913V219.164C687.913 221.234 686.683 222.584 684.643 222.584C682.603 222.584 681.373 221.234 681.373 219.164V209.714H677.143V219.164C677.143 223.754 679.993 226.454 684.643 226.454ZM700.011 203.264H695.781V226.064H700.011V203.264ZM716.259 211.664C714.819 210.074 713.079 209.294 711.039 209.294C708.729 209.294 706.779 210.104 705.249 211.724C703.719 213.314 702.939 215.354 702.939 217.814C702.939 220.274 703.689 222.344 705.219 223.994C706.749 225.644 708.699 226.454 711.039 226.454C713.109 226.454 714.849 225.704 716.259 224.174V226.064H720.279V209.714H716.259V211.664ZM716.319 217.874C716.319 219.194 715.869 220.304 714.999 221.234C714.129 222.164 713.049 222.614 711.729 222.614C710.409 222.614 709.329 222.164 708.459 221.234C707.589 220.304 707.169 219.194 707.169 217.874C707.169 216.584 707.589 215.474 708.429 214.544C709.299 213.614 710.379 213.164 711.729 213.164C713.049 213.164 714.129 213.614 714.999 214.544C715.869 215.474 716.319 216.584 716.319 217.874ZM734.642 221.774C733.652 222.344 732.722 222.614 731.912 222.614C730.382 222.614 729.602 221.654 729.602 219.734V213.254H735.002V209.714H729.602V203.924H725.402V209.714H722.702V213.254H725.372V220.004C725.372 224.234 727.322 226.454 731.072 226.454C732.962 226.454 734.552 226.004 735.902 225.104L734.642 221.774ZM753.546 217.514C753.546 214.964 752.766 212.984 751.236 211.514C749.706 210.044 747.726 209.294 745.356 209.294C742.836 209.294 740.796 210.104 739.206 211.724C737.616 213.344 736.836 215.384 736.836 217.874C736.836 220.244 737.586 222.284 739.116 223.934C740.646 225.584 742.836 226.424 745.716 226.424C748.416 226.424 750.786 225.674 752.856 224.174L751.176 221.204C749.766 222.164 747.666 222.854 745.896 222.854C743.316 222.854 741.726 221.684 741.126 219.374H753.396C753.486 218.714 753.546 218.084 753.546 217.514ZM745.356 212.804C747.516 212.804 749.046 214.094 749.436 216.224H741.126C741.636 214.094 743.226 212.804 745.356 212.804ZM776.317 211.664C774.877 210.074 773.137 209.294 771.097 209.294C768.787 209.294 766.837 210.104 765.307 211.724C763.777 213.314 762.997 215.354 762.997 217.814C762.997 220.274 763.747 222.344 765.277 223.994C766.807 225.644 768.757 226.454 771.097 226.454C773.167 226.454 774.907 225.704 776.317 224.174V226.064H780.337V209.714H776.317V211.664ZM776.377 217.874C776.377 219.194 775.927 220.304 775.057 221.234C774.187 222.164 773.107 222.614 771.787 222.614C770.467 222.614 769.387 222.164 768.517 221.234C767.647 220.304 767.227 219.194 767.227 217.874C767.227 216.584 767.647 215.474 768.487 214.544C769.357 213.614 770.437 213.164 771.787 213.164C773.107 213.164 774.187 213.614 775.057 214.544C775.927 215.474 776.377 216.584 776.377 217.874ZM796.531 211.724C795.121 210.104 793.411 209.294 791.341 209.294C789.031 209.294 787.081 210.134 785.551 211.784C784.021 213.434 783.271 215.474 783.271 217.874C783.271 220.274 784.021 222.314 785.551 223.964C787.081 225.614 789.031 226.454 791.341 226.454C793.411 226.454 795.121 225.674 796.501 224.114V232.784H800.731V209.714H796.531V211.724ZM792.091 222.584C790.741 222.584 789.661 222.134 788.821 221.234C787.981 220.334 787.561 219.224 787.561 217.904C787.561 216.584 787.981 215.474 788.821 214.574C789.661 213.674 790.741 213.224 792.091 213.224C793.411 213.224 794.491 213.674 795.331 214.574C796.171 215.474 796.591 216.584 796.591 217.904C796.591 219.224 796.171 220.334 795.331 221.234C794.491 222.134 793.411 222.584 792.091 222.584ZM811.851 226.454C816.531 226.454 819.351 223.754 819.351 219.164V209.714H815.121V219.164C815.121 221.234 813.891 222.584 811.851 222.584C809.811 222.584 808.581 221.234 808.581 219.164V209.714H804.351V219.164C804.351 223.754 807.201 226.454 811.851 226.454ZM826.918 207.284L829.738 202.004H825.028L823.168 207.284H826.918ZM827.218 209.714H822.988V226.064H827.218V209.714Z" fill="#262B6B"/>
<path d="M557.064 86.8149V81.1349H542.064V57.2549H536.104V86.8149H557.064ZM565.829 56.4149H560.189V86.8149H565.829V56.4149ZM592.052 75.4149C592.052 72.0149 591.012 69.3749 588.972 67.4149C586.932 65.4549 584.292 64.4549 581.132 64.4549C577.772 64.4549 575.052 65.5349 572.932 67.6949C570.812 69.8549 569.772 72.5749 569.772 75.8949C569.772 79.0549 570.772 81.7749 572.812 83.9749C574.852 86.1749 577.772 87.2949 581.612 87.2949C585.212 87.2949 588.372 86.2949 591.132 84.2949L588.892 80.3349C587.012 81.6149 584.212 82.5349 581.852 82.5349C578.412 82.5349 576.292 80.9749 575.492 77.8949H591.852C591.972 77.0149 592.052 76.1749 592.052 75.4149ZM581.132 69.1349C584.012 69.1349 586.052 70.8549 586.572 73.6949H575.492C576.172 70.8549 578.292 69.1349 581.132 69.1349ZM612.611 67.4149C610.811 65.4549 608.571 64.4549 605.891 64.4549C602.731 64.4549 600.091 65.5349 597.971 67.6549C595.851 69.7749 594.771 72.4549 594.771 75.6949C594.771 78.9349 595.771 81.5749 597.811 83.6949C599.851 85.8149 602.451 86.8549 605.651 86.8549C608.451 86.8549 610.691 85.9349 612.371 84.0549V85.1749C612.371 88.6949 609.891 91.2149 605.571 91.2149C603.011 91.2149 600.451 90.3749 597.931 88.6549L595.731 92.8949C598.651 95.0149 602.011 96.0549 605.731 96.0549C609.291 96.0549 612.211 95.0149 614.451 92.9749C616.691 90.9349 617.811 88.1349 617.811 84.6549V65.0149H612.611V67.4149ZM600.451 75.7349C600.451 73.9749 601.011 72.5349 602.171 71.3749C603.331 70.2149 604.771 69.6149 606.491 69.6149C608.211 69.6149 609.651 70.2149 610.811 71.3749C611.971 72.5349 612.531 73.9749 612.531 75.7349C612.531 77.4949 611.971 78.9749 610.811 80.1749C609.651 81.3349 608.211 81.9349 606.491 81.9349C604.771 81.9349 603.331 81.3349 602.171 80.1749C601.011 79.0149 600.451 77.5349 600.451 75.7349ZM635.603 61.7749L639.363 54.7349H633.083L630.603 61.7749H635.603ZM621.763 75.8949C621.763 79.1349 622.843 81.8549 625.043 84.0549C627.243 86.2549 630.043 87.3749 633.443 87.3749C636.843 87.3749 639.643 86.2549 641.843 84.0549C644.043 81.8549 645.123 79.1349 645.123 75.8949C645.123 72.6949 644.043 69.9749 641.843 67.7749C639.643 65.5349 636.843 64.4149 633.443 64.4149C630.043 64.4149 627.243 65.5349 625.043 67.7749C622.843 69.9749 621.763 72.6949 621.763 75.8949ZM629.123 80.3349C627.963 79.0949 627.403 77.6149 627.403 75.8949C627.403 74.1749 627.963 72.6949 629.123 71.4949C630.283 70.2949 631.723 69.6949 633.443 69.6949C635.163 69.6949 636.563 70.2949 637.723 71.4949C638.883 72.6949 639.483 74.1749 639.483 75.8949C639.483 77.6149 638.883 79.0949 637.723 80.3349C636.563 81.5349 635.163 82.1349 633.443 82.1349C631.723 82.1349 630.283 81.5349 629.123 80.3349ZM680.138 75.4149C680.138 72.0149 679.098 69.3749 677.058 67.4149C675.018 65.4549 672.378 64.4549 669.218 64.4549C665.858 64.4549 663.138 65.5349 661.018 67.6949C658.898 69.8549 657.858 72.5749 657.858 75.8949C657.858 79.0549 658.858 81.7749 660.898 83.9749C662.938 86.1749 665.858 87.2949 669.698 87.2949C673.298 87.2949 676.458 86.2949 679.218 84.2949L676.978 80.3349C675.098 81.6149 672.298 82.5349 669.938 82.5349C666.498 82.5349 664.378 80.9749 663.578 77.8949H679.938C680.058 77.0149 680.138 76.1749 680.138 75.4149ZM669.218 69.1349C672.098 69.1349 674.138 70.8549 674.658 73.6949H663.578C664.258 70.8549 666.378 69.1349 669.218 69.1349ZM689.657 56.4149H684.017V86.8149H689.657V56.4149ZM730.963 64.4149C727.723 64.4149 724.763 65.8549 723.163 68.2549C722.003 65.7349 719.483 64.4149 716.763 64.4149C713.923 64.3749 711.363 65.8549 710.123 68.1349V65.0149H704.603V86.8149H710.243V74.8949C710.243 71.6549 712.243 69.6149 715.003 69.6149C717.683 69.6149 719.403 71.4949 719.403 74.7349V86.8149H725.043V74.8549C725.043 71.6549 727.003 69.6149 729.843 69.6149C732.443 69.6149 734.203 71.3749 734.203 74.6949V86.8149H739.843V73.6549C739.843 70.7349 739.003 68.4949 737.323 66.8549C735.683 65.2149 733.563 64.4149 730.963 64.4149ZM743.521 75.8949C743.521 79.1349 744.601 81.8549 746.801 84.0549C749.001 86.2549 751.801 87.3749 755.201 87.3749C758.601 87.3749 761.401 86.2549 763.601 84.0549C765.801 81.8549 766.881 79.1349 766.881 75.8949C766.881 72.6949 765.801 69.9749 763.601 67.7749C761.401 65.5349 758.601 64.4149 755.201 64.4149C751.801 64.4149 749.001 65.5349 746.801 67.7749C744.601 69.9749 743.521 72.6949 743.521 75.8949ZM750.881 80.3349C749.721 79.0949 749.161 77.6149 749.161 75.8949C749.161 74.1749 749.721 72.6949 750.881 71.4949C752.041 70.2949 753.481 69.6949 755.201 69.6949C756.921 69.6949 758.321 70.2949 759.481 71.4949C760.641 72.6949 761.241 74.1749 761.241 75.8949C761.241 77.6149 760.641 79.0949 759.481 80.3349C758.321 81.5349 756.921 82.1349 755.201 82.1349C753.481 82.1349 752.041 81.5349 750.881 80.3349ZM797.213 64.4149C793.973 64.4149 791.013 65.8549 789.413 68.2549C788.253 65.7349 785.733 64.4149 783.013 64.4149C780.173 64.3749 777.613 65.8549 776.373 68.1349V65.0149H770.853V86.8149H776.493V74.8949C776.493 71.6549 778.493 69.6149 781.253 69.6149C783.933 69.6149 785.653 71.4949 785.653 74.7349V86.8149H791.293V74.8549C791.293 71.6549 793.253 69.6149 796.093 69.6149C798.693 69.6149 800.453 71.3749 800.453 74.6949V86.8149H806.093V73.6549C806.093 70.7349 805.253 68.4949 803.573 66.8549C801.933 65.2149 799.813 64.4149 797.213 64.4149ZM832.091 75.4149C832.091 72.0149 831.051 69.3749 829.011 67.4149C826.971 65.4549 824.331 64.4549 821.171 64.4549C817.811 64.4549 815.091 65.5349 812.971 67.6949C810.851 69.8549 809.811 72.5749 809.811 75.8949C809.811 79.0549 810.811 81.7749 812.851 83.9749C814.891 86.1749 817.811 87.2949 821.651 87.2949C825.251 87.2949 828.411 86.2949 831.171 84.2949L828.931 80.3349C827.051 81.6149 824.251 82.5349 821.891 82.5349C818.451 82.5349 816.331 80.9749 815.531 77.8949H831.891C832.011 77.0149 832.091 76.1749 832.091 75.4149ZM821.171 69.1349C824.051 69.1349 826.091 70.8549 826.611 73.6949H815.531C816.211 70.8549 818.331 69.1349 821.171 69.1349ZM841.61 86.8149V75.1349C841.61 71.8949 843.61 69.6149 846.61 69.6149C849.37 69.6149 851.21 71.5349 851.21 75.0149V86.8149H856.85V73.4949C856.85 70.5749 856.01 68.3349 854.37 66.7749C852.73 65.2149 850.69 64.4149 848.33 64.4149C845.25 64.4149 842.65 65.9349 841.49 68.0549V65.0149H835.97V86.8149H841.61ZM875.519 81.0949C874.199 81.8549 872.959 82.2149 871.879 82.2149C869.839 82.2149 868.799 80.9349 868.799 78.3749V69.7349H875.999V65.0149H868.799V57.2949H863.199V65.0149H859.599V69.7349H863.159V78.7349C863.159 84.3749 865.759 87.3349 870.759 87.3349C873.279 87.3349 875.399 86.7349 877.199 85.5349L875.519 81.0949ZM878.404 75.8949C878.404 79.1349 879.484 81.8549 881.684 84.0549C883.884 86.2549 886.684 87.3749 890.084 87.3749C893.484 87.3749 896.284 86.2549 898.484 84.0549C900.684 81.8549 901.764 79.1349 901.764 75.8949C901.764 72.6949 900.684 69.9749 898.484 67.7749C896.284 65.5349 893.484 64.4149 890.084 64.4149C886.684 64.4149 883.884 65.5349 881.684 67.7749C879.484 69.9749 878.404 72.6949 878.404 75.8949ZM885.764 80.3349C884.604 79.0949 884.044 77.6149 884.044 75.8949C884.044 74.1749 884.604 72.6949 885.764 71.4949C886.924 70.2949 888.364 69.6949 890.084 69.6949C891.804 69.6949 893.204 70.2949 894.364 71.4949C895.524 72.6949 896.124 74.1749 896.124 75.8949C896.124 77.6149 895.524 79.0949 894.364 80.3349C893.204 81.5349 891.804 82.1349 890.084 82.1349C888.364 82.1349 886.924 81.5349 885.764 80.3349ZM640.297 105.535C638.497 103.495 636.297 102.455 633.657 102.455C630.577 102.455 628.017 103.535 625.937 105.735C623.897 107.935 622.857 110.655 622.857 113.895C622.857 117.175 623.897 119.895 625.937 122.095C627.977 124.255 630.577 125.335 633.657 125.335C636.417 125.335 638.657 124.255 640.417 122.135V124.815H645.937V94.4149H640.297V105.535ZM640.577 113.895C640.577 115.695 640.017 117.175 638.897 118.415C637.777 119.615 636.337 120.215 634.537 120.215C632.737 120.215 631.297 119.615 630.137 118.415C629.017 117.175 628.457 115.695 628.457 113.895C628.457 112.135 629.017 110.655 630.137 109.455C631.297 108.215 632.737 107.615 634.537 107.615C636.337 107.615 637.777 108.215 638.897 109.455C640.017 110.655 640.577 112.135 640.577 113.895ZM672.208 113.415C672.208 110.015 671.168 107.375 669.128 105.415C667.088 103.455 664.448 102.455 661.288 102.455C657.928 102.455 655.208 103.535 653.088 105.695C650.968 107.855 649.928 110.575 649.928 113.895C649.928 117.055 650.928 119.775 652.968 121.975C655.008 124.175 657.928 125.295 661.768 125.295C665.368 125.295 668.528 124.295 671.288 122.295L669.048 118.335C667.168 119.615 664.368 120.535 662.008 120.535C658.568 120.535 656.448 118.975 655.648 115.895H672.008C672.128 115.015 672.208 114.175 672.208 113.415ZM661.288 107.135C664.168 107.135 666.208 108.855 666.728 111.695H655.648C656.328 108.855 658.448 107.135 661.288 107.135ZM696.37 125.295C700.85 125.295 704.73 123.055 706.61 119.535L702.05 116.855C701.09 118.775 698.77 120.135 696.49 120.135C694.77 120.135 693.29 119.535 692.13 118.375C690.97 117.175 690.41 115.695 690.41 113.895C690.41 112.135 691.01 110.655 692.17 109.495C693.33 108.295 694.81 107.695 696.61 107.695C698.97 107.695 700.85 108.815 702.17 111.015L706.69 108.535C704.89 104.655 700.97 102.455 696.53 102.455C693.09 102.455 690.29 103.535 688.09 105.695C685.89 107.815 684.81 110.575 684.81 113.895C684.81 117.215 685.89 119.975 688.05 122.095C690.21 124.215 692.97 125.295 696.37 125.295ZM715.712 124.815V114.455C715.712 109.935 717.832 107.855 721.032 107.855C721.832 107.855 722.712 108.015 723.632 108.295L724.112 102.895C723.232 102.575 722.352 102.415 721.472 102.415C718.792 102.415 716.792 103.575 715.472 105.935V103.015H710.072V124.815H715.712ZM747.326 113.415C747.326 110.015 746.286 107.375 744.246 105.415C742.206 103.455 739.566 102.455 736.406 102.455C733.045 102.455 730.325 103.535 728.205 105.695C726.085 107.855 725.045 110.575 725.045 113.895C725.045 117.055 726.045 119.775 728.085 121.975C730.125 124.175 733.045 125.295 736.885 125.295C740.486 125.295 743.646 124.295 746.406 122.295L744.165 118.335C742.285 119.615 739.485 120.535 737.126 120.535C733.685 120.535 731.565 118.975 730.765 115.895H747.125C747.246 115.015 747.326 114.175 747.326 113.415ZM736.406 107.135C739.286 107.135 741.326 108.855 741.846 111.695H730.765C731.445 108.855 733.565 107.135 736.406 107.135ZM761.605 125.295C766.085 125.295 769.965 123.055 771.845 119.535L767.285 116.855C766.325 118.775 764.005 120.135 761.725 120.135C760.005 120.135 758.525 119.535 757.365 118.375C756.205 117.175 755.645 115.695 755.645 113.895C755.645 112.135 756.245 110.655 757.405 109.495C758.565 108.295 760.045 107.695 761.845 107.695C764.205 107.695 766.085 108.815 767.405 111.015L771.925 108.535C770.125 104.655 766.205 102.455 761.765 102.455C758.325 102.455 755.525 103.535 753.325 105.695C751.125 107.815 750.045 110.575 750.045 113.895C750.045 117.215 751.125 119.975 753.285 122.095C755.445 124.215 758.205 125.295 761.605 125.295ZM796.388 113.415C796.388 110.015 795.348 107.375 793.308 105.415C791.268 103.455 788.628 102.455 785.468 102.455C782.108 102.455 779.388 103.535 777.268 105.695C775.148 107.855 774.108 110.575 774.108 113.895C774.108 117.055 775.108 119.775 777.148 121.975C779.188 124.175 782.108 125.295 785.948 125.295C789.548 125.295 792.708 124.295 795.468 122.295L793.228 118.335C791.348 119.615 788.548 120.535 786.188 120.535C782.748 120.535 780.628 118.975 779.828 115.895H796.188C796.308 115.015 796.388 114.175 796.388 113.415ZM785.468 107.135C788.348 107.135 790.388 108.855 790.908 111.695H779.828C780.508 108.855 782.628 107.135 785.468 107.135ZM805.907 124.815V114.455C805.907 109.935 808.027 107.855 811.227 107.855C812.027 107.855 812.907 108.015 813.827 108.295L814.307 102.895C813.427 102.575 812.547 102.415 811.667 102.415C808.987 102.415 806.987 103.575 805.667 105.935V103.015H800.267V124.815H805.907Z" fill="white"/>
<defs>
<clipPath id="clip0_123_156">
<rect width="1437.3" height="290" fill="white" transform="translate(0.699951)"/>
</clipPath>
</defs>
</svg>
