<?xml version="1.0" encoding="UTF-8"?><svg xmlns="http://www.w3.org/2000/svg" viewBox="0 0 1437.3 450.47"><defs><style>.d{fill:none;}.e{fill:#ffb000;}.f{fill:#c33;}.g{fill:#22b573;}.h{fill:#262b6b;}</style></defs><g id="a"/><g id="b"><g id="c"><g><rect class="h" width="1437.3" height="450.47"/><path class="g" d="M1.48,450.47c4.17-7.7,2.14-14.65-1.48-20.31v-13.34c1.68,.37,3.56,.79,5.67,1.28,31.83,7.41,4.9-11.99-5.67-26.3v-12.7c2.46-.86,6.24-1.22,11.7-.91,59.86,3.34,76.72-23.2,126.28-56.41,19.92-13.34,51.91-27.06,82.94-39.7,24.12-9.85,47.67-19.04,64.52-26.91,82.75-38.67,184.3-16.04,263.49,35.36,11.7,7.59,23.07,15.8,33.95,24.66,20.43,16.65,39.12,35.58,54.87,57,13.22,17.99,26.69,45.52,39.98,78.28H1.48Z"/><path class="e" d="M856.56,450.47H0V234.15c9.82-7.1,20.48-12.74,31.88-16.48,48.63-15.96,101.32,4.71,144.77,33.02,15.09,9.83,29.67,20.63,44.27,31.39,27.45,20.23,54.92,40.31,85.77,53.48,55.65,23.77,118.48,22.99,176.75,8.1,33.36-8.53,65.89-21.54,99.44-28.47,8.31-1.72,16.69-3.06,25.16-3.87,65.09-6.21,128.7,20.58,180.76,64.09,21.2,17.71,40.49,38.2,57.19,60.36,3.62,4.81,7.15,9.71,10.57,14.7Z"/><path class="f" d="M1415.38,258.26c6.04-2.79,12.16-5.3,18.36-7.54v199.75H729.57c9.98-26.83,26.2-51.17,49.01-68.18,3.32-2.48,6.73-4.77,10.22-6.88,44.28-26.85,101.7-25.62,153.11-14.98,55.46,11.48,109.45,32.41,166.05,34.49,66.65,2.46,132.25-21.85,188.13-58.28,39.91-26.03,76.03-58.41,119.29-78.38Z"/><path class="e" d="M1125.52,302.21c-79.33,12.02-153.38-42.55-165.4-121.88-12.02-79.33,48.58-89.69,127.91-101.71,79.33-12.02,147.35-21.14,159.37,58.19,12.02,79.33-42.55,153.38-121.88,165.4Z"/><rect class="d" width="1437.3" height="448.14"/></g></g></g></svg>
