<?xml version="1.0" encoding="UTF-8"?><svg xmlns="http://www.w3.org/2000/svg" viewBox="0 0 468.82 147.78"><defs><style>.d{fill:#fff;}</style></defs><g id="a"/><g id="b"><g id="c"><g><g><path class="d" d="M258.82,3.01c1.04,.36,2.17,.57,3.11,1.11,2.7,1.56,3.89,4.78,2.98,7.63-.98,3.07-3.7,4.88-6.91,4.79-3.58-.1-6.43-3.53-6.19-6.99,.23-3.4,1.92-5.43,5.25-6.25,.24-.06,.46-.19,.68-.29,.36,0,.72,0,1.08,0Z"/><path class="d" d="M232.63,3.16h12.83c1.8,.75,2.1,1.58,1.28,3.35-4.66,9.99-9.31,19.98-13.97,29.97-3.28,7.03-6.58,14.06-9.86,21.09-2.67,5.72-5.41,11.42-7.94,17.2-.86,1.95-3.19,2.15-4.64,1.48-.33-.15-.62-.54-.78-.89-1.56-3.26-3.09-6.53-4.63-9.8-2.3-4.88-4.62-9.76-6.9-14.65-2.42-5.18-4.81-10.37-7.22-15.55-3-6.45-6-12.9-9.01-19.35-1.47-3.16-2.95-6.32-4.41-9.49-.17-.37-.27-.79-.4-1.18,.14-1.53,.82-2.16,2.39-2.17,4.09-.01,8.18-.01,12.26-.02,.92,.23,1.42,.86,1.81,1.71,6.02,13.3,12.07,26.59,18.12,39.88,.12,.26,.41,.44,.61,.66,.2-.23,.48-.42,.59-.68,5.98-13.22,11.94-26.45,17.89-39.68,.41-.92,.89-1.7,1.97-1.89Z"/><path class="d" d="M323.84,21.04c1.65,.84,1.83,1.46,.91,3.38-4.58,9.57-9.16,19.14-13.75,28.71-3.44,7.19-6.92,14.36-10.29,21.59-.92,1.97-3.21,2.44-4.76,1.54-.4-.23-.78-.65-.98-1.07-2.36-4.87-4.68-9.76-7.03-14.65-2.03-4.22-4.08-8.42-6.1-12.64-2.33-4.88-4.62-9.79-6.94-14.68-1.48-3.13-3-6.25-4.47-9.38-.64-1.37-.09-2.45,1.38-2.81,.86-.15,1.73-.06,2.59-.06,3.02-.01,6.04,0,9.07,0,.33,0,.66-.06,.98,.06,.98,.38,1.54,1.1,1.94,2.07,3.51,8.4,7.05,16.79,10.58,25.18,.09,.22,.18,.44,.3,.64,.07,.12,.25,.29,.3,.26,.13-.05,.26-.2,.32-.33,1.73-3.91,3.44-7.83,5.19-11.74,1.88-4.2,3.8-8.38,5.7-12.57,.24-.53,.5-1.06,.71-1.6,.4-1.06,1.11-1.72,2.24-1.91,.89-.15,1.79-.06,2.68-.06,2.84-.02,5.69,0,8.53,0,.3,0,.6-.06,.89,.07Z"/><path class="d" d="M251.22,22.86c.29-1.02,.94-1.66,2.01-1.83,2.54-.14,5.07-.04,7.61-.06,1.01,0,2.03-.09,3.04,.06,1.03,.4,1.73,1.1,2.01,2.19,.12,.29,.07,.59,.07,.89,0,16.49,0,32.98,0,49.47,0,.3,.06,.6-.07,.89-.35,1.03-.95,1.82-2.01,2.19-1.55,.15-3.1,.06-4.65,.06-2,0-4,.09-6-.05-1.04-.2-1.64-.89-2-1.83-.14-.29-.07-.59-.07-.89,0-16.73,0-33.47,0-50.2,0-.3-.06-.6,.07-.89Z"/><path class="d" d="M370.17,42.62c0-.27,.05-.54-.06-.8-.44-2.46-.65-4.98-1.35-7.36-1.72-5.9-5.51-10.02-11.36-12.1-4.08-1.45-8.3-1.8-12.62-1.49-4.49,.32-8.89,1.09-13.15,2.56-1.46,.5-1.98,1.06-1.78,2.54,.35,2.49,.81,4.98,1.41,7.42,.4,1.63,1.19,1.95,2.8,1.56,.43-.1,.85-.25,1.28-.36,3.76-.95,7.54-1.6,11.45-1.46,1.88,.07,3.67,.34,5.29,1.27,2.92,1.68,4.23,4.32,4.5,7.61,.09,1.03-.37,1.05-1.07,.86-4.83-1.29-9.72-1.59-14.67-.84-3.82,.58-7.4,1.82-10.36,4.33-3.28,2.79-5.31,6.31-5.51,10.75-.14,3.12,.08,6.17,1.28,9.08,1.15,2.8,2.78,5.22,5.27,7.05,2.87,2.1,6.07,3.29,9.58,3.34,2.58,.04,5.23-.05,7.75-.58,3.7-.78,7.02-2.55,9.87-5.09,.42-.37,.63-.28,.87,.19,.4,.75,.77,1.54,1.3,2.2,1.32,1.62,3.2,2.3,5.16,2.61,2.2,.34,3.34-.32,4.04-1.95,.11-.26,.06-.53,.06-.8,0-10.17,0-20.35,0-30.52Zm-13.94,16.77c-.06,.62-.22,1.32-.56,1.83-2.38,3.51-7.49,5.43-11.6,4.42-3.67-.9-5.88-4.53-5.17-8.5,.64-3.63,3.23-5.85,7.28-6.3,3.23-.36,6.32,.14,9.36,1.22,.55,.19,.75,.45,.73,1.03-.04,1.11-.01,2.22-.01,3.33,0,.99,.07,1.99-.02,2.97Z"/></g><g><path class="d" d="M161.59,62.99v12.96c0,.55-.24,1.04-.63,1.36-.22,.12-.45,.24-.67,.36-.08,.02-.16,.04-.24,.05-.09,.01-.17,.02-.26,.02h-.3c-5.75,.2-11.5,0-17.26,.09-.84,.01-1.69-.18-2.52,.14-1.91,.36-2.21,1.53-1.79,3.25,1.97,8.02,5.63,15.14,11.15,21.3,1.68,1.88,1.65,2.45-.12,4.22-2.61,2.61-5.21,5.22-7.83,7.83-1.42,1.41-2.48,1.37-3.81-.12-7.75-8.72-13.04-18.72-15.8-30.07-1.65-6.78-1.92-13.71-1.41-20.57,.64-8.59,3.1-16.82,7.09-24.5,2.74-5.29,6.04-10.21,10.18-14.53,1.3-1.36,2.77-1.34,4.11,0,2.62,2.6,5.21,5.23,7.84,7.82,1.26,1.24,1.2,2.34,.02,3.64-5.72,6.28-9.46,13.64-11.52,21.85-.27,1.1-.43,2.42,1.14,2.93,3.57,.3,7.14,.05,10.71,.14,2.86,.06,5.74-.11,8.6,.04h1.51c.88,0,1.61,.63,1.76,1.46,.02,.11,.03,.23,.03,.34Z"/><path class="d" d="M161.59,62.68v.32c0-.12-.01-.23-.03-.34l.03,.02Z"/><path class="d" d="M80.81,82.09c.8,.49,1.5,.75,1.98,1.23,14.32,14.27,28.61,28.56,42.9,42.85,1.52,1.52,1.5,2.32,0,3.82-2.65,2.65-5.3,5.3-7.95,7.94-1.62,1.61-2.22,1.63-3.89,.03-1.52-1.45-2.98-2.96-4.47-4.45-8.8-8.79-17.59-17.58-26.39-26.37-1.77-1.77-2.88-1.77-4.68,.02-10.16,10.15-20.32,20.31-30.49,30.46-2.03,2.03-2.48,2.04-4.5,.03-2.42-2.4-4.83-4.8-7.23-7.22-1.74-1.76-1.76-2.72-.06-4.42,14.22-14.21,28.43-28.42,42.67-42.6,.55-.55,1.33-.86,2.1-1.34Z"/><path class="d" d="M45.77,0c.86,.62,1.75,1.08,2.43,1.76,10.14,10.09,20.25,20.21,30.37,30.32,1.98,1.98,2.46,1.98,4.41,.05,9.23-9.14,18.47-18.27,27.7-27.42,1.12-1.11,2.13-2.35,3.23-3.47,1.23-1.25,2.74-1.25,3.99,0,2.62,2.6,5.23,5.2,7.83,7.83,1.49,1.51,1.46,2.29-.07,3.82-14.29,14.29-28.59,28.57-42.89,42.85-1.65,1.65-2.61,1.65-4.26,0-14.06-14.04-28.11-28.09-42.16-42.13-2.09-2.09-2.08-2.94,.02-5.04,2.45-2.45,4.88-4.92,7.36-7.33,.48-.47,1.18-.72,2.04-1.23Z"/><path class="d" d="M41.53,74.62c-.98,13.29-5.75,25.22-13.9,35.77-1.14,1.47-2.46,2.8-3.72,4.18-1.14,1.25-2.29,1.45-3.58,.15-2.63-2.67-5.31-5.29-7.94-7.95-1.5-1.52-1.51-2.48-.06-4.05,5.7-6.19,9.36-13.44,11.42-21.57,.41-1.61,0-2.62-1.56-3.15-.59-.32-1.22-.16-1.83-.16-.36,0-.73,0-1.09,0-5.34-.01-10.68,0-16.02-.01-.32,0-.64,.03-.97,.03-.36-.07-.7-.21-1-.4-.78-.5-1.29-1.38-1.29-2.37v-5.29c0-1.82,.03-3.64,.05-5.46,0-.63,.1-1.22,.32-1.7,.28-.5,.71-.9,1.23-1.15h0c.24-.1,.51-.16,.83-.19,.26-.04,.51-.07,.77-.09,1.82-.17,3.66-.02,5.48-.04,4.19-.03,8.37,0,12.56-.02,.56,0,1.13,.14,1.67-.15,1.8-1.29,.88-2.92,.48-4.41-2.06-7.7-5.83-14.5-11.18-20.4-1.29-1.42-1.02-2.53,.23-3.75,2.6-2.54,5.14-5.14,7.72-7.69,1.31-1.3,2.83-1.31,4.11,.09,6.27,6.86,10.92,14.67,13.94,23.49,2.94,8.57,3.97,17.37,3.31,26.32Z"/><path class="d" d="M19.28,77.83c-.2,.05-.41,.07-.62,.07H2.83c-.18,0-.36-.02-.54-.05,.32,0,.65-.03,.97-.03,5.34,.01,10.68,0,16.02,.01Z"/><path class="d" d="M160.96,77.31c-.19,.17-.42,.29-.67,.36,.23-.12,.45-.24,.67-.36Z"/></g><g><path class="d" d="M193.78,95.3l-1.93,10.97h18.71l-1.24,7.29h-18.77l-2.16,11.99h20.55l-1.36,7.61h-28.73l7.99-45.47h28.63l-1.27,7.61h-20.42Z"/><path class="d" d="M218.71,98.76h7.39l-.44,2.92h.13c.97-1.25,2.23-2.21,3.77-2.89,1.54-.68,3.17-1.01,4.88-1.01,1.86,0,3.57,.4,5.12,1.19,1.55,.79,2.66,1.82,3.31,3.09h.13c2.66-2.85,5.91-4.28,9.73-4.28,3.38,0,6.12,.94,8.21,2.82,2.09,1.88,3.14,4.33,3.14,7.36,0,.78-.06,1.56-.19,2.35l-4.03,22.86h-7.7l3.87-22.01c.11-.53,.16-1.03,.16-1.49,0-1.42-.44-2.54-1.32-3.38s-2.05-1.25-3.5-1.25c-1.99,0-3.66,.62-5.03,1.86-1.36,1.24-2.25,2.93-2.65,5.09l-3.74,21.18h-7.42l3.9-22.01c.02-.19,.04-.4,.06-.62,.02-.22,.04-.39,.05-.51,.01-.12,.02-.22,.02-.3,0-1.46-.42-2.61-1.25-3.44-.84-.83-2.01-1.25-3.54-1.25-1.99,0-3.66,.62-5.03,1.86-1.36,1.24-2.25,2.93-2.65,5.09l-3.77,21.18h-7.67l6.06-34.41Z"/><path class="d" d="M271.84,98.76h7.67l-.47,2.57h.13c1.12-1.12,2.51-1.99,4.15-2.62,1.65-.62,3.38-.94,5.2-.94,3.87,0,7.04,1.45,9.53,4.36,2.48,2.91,3.73,6.6,3.73,11.08,.06,3.72-.71,7.21-2.33,10.46-1.62,3.26-3.83,5.83-6.64,7.74-2.81,1.9-5.83,2.81-9.07,2.73-1.92,0-3.72-.35-5.39-1.05-1.67-.7-3.01-1.63-4.03-2.79h-.13l-3.08,17.47h-7.9l8.62-49.02Zm22.01,14.46c0-2.58-.63-4.59-1.9-6.03-1.27-1.44-3.06-2.16-5.36-2.16s-4.32,.72-6.06,2.16c-1.73,1.44-2.81,3.28-3.23,5.52l-1.55,9.1c.4,1.46,1.29,2.66,2.66,3.62,1.37,.95,2.95,1.43,4.72,1.43,3.07,0,5.62-1.28,7.66-3.85,2.04-2.57,3.06-5.83,3.06-9.78Z"/><path class="d" d="M309.38,98.76h7.45l-.57,2.98h.13c1.88-2.43,4.44-3.65,7.67-3.65,1.39,0,2.78,.22,4.15,.67l-1.84,7.52c-1.1-.3-2.3-.44-3.62-.44-2.2,0-4,.71-5.41,2.14-1.41,1.43-2.35,3.5-2.84,6.23l-3.33,18.96h-7.93l6.12-34.41Z"/><path class="d" d="M359.7,113.47c0,1.63-.11,3.23-.32,4.82h-25.15v.38c-.13,2.71,.5,4.83,1.89,6.36,1.38,1.53,3.38,2.3,5.98,2.3,3.21,0,6.29-1.91,9.23-5.74l5.58,4.57c-1.84,2.56-4.07,4.53-6.69,5.91-2.62,1.38-5.41,2.08-8.37,2.08-4.59,0-8.29-1.41-11.1-4.23-2.81-2.82-4.22-6.57-4.22-11.24-.04-2.85,.41-5.59,1.35-8.2,.94-2.61,2.23-4.85,3.85-6.72,1.63-1.87,3.58-3.35,5.87-4.44,2.28-1.09,4.67-1.6,7.17-1.54,4.48,0,8.09,1.44,10.83,4.31,2.74,2.88,4.11,6.67,4.11,11.38Zm-14.94-8.88c-2.26,0-4.27,.72-6.02,2.16-1.75,1.44-3.01,3.34-3.77,5.71h17.22c.02-2.45-.65-4.38-2.01-5.77-1.36-1.39-3.17-2.09-5.41-2.09Z"/><path class="d" d="M367.26,98.76h7.61l-.54,3.04h.13c1.16-1.23,2.59-2.2,4.3-2.93,1.7-.73,3.49-1.09,5.38-1.09,3.36,0,6.07,.99,8.12,2.96,2.05,1.98,3.08,4.58,3.08,7.82,0,1.02-.1,1.95-.29,2.79l-3.81,21.82h-7.93l3.77-21.31c.08-.51,.13-1.07,.13-1.68,0-1.65-.47-2.91-1.41-3.77-.94-.87-2.31-1.3-4.11-1.3-2.28,0-4.24,.69-5.88,2.08-1.64,1.39-2.67,3.21-3.09,5.47l-3.58,20.52h-7.93l6.06-34.41Z"/><path class="d" d="M398.28,118.86c-.04-2.94,.41-5.73,1.35-8.37,.94-2.64,2.23-4.9,3.85-6.77,1.63-1.87,3.55-3.34,5.77-4.41,2.22-1.07,4.53-1.58,6.95-1.54,3.78,0,6.97,1.1,9.54,3.3h.13l2.73-15.32h7.93l-8.37,47.41h-7.23l.6-3.17h-.13c-1.1,1.29-2.46,2.29-4.09,3.01-1.63,.72-3.4,1.08-5.33,1.08-4.18,0-7.52-1.37-9.99-4.11-2.47-2.74-3.71-6.44-3.71-11.12Zm24.29,.86l1.81-10.27c-.63-1.33-1.64-2.4-3.01-3.2-1.37-.8-2.95-1.21-4.72-1.21-2.92,0-5.39,1.29-7.42,3.85-2.03,2.57-3.05,5.81-3.05,9.72,0,2.58,.65,4.58,1.95,5.99,1.3,1.42,3.08,2.12,5.34,2.12s4.14-.69,5.9-2.06c1.84-1.5,2.91-3.15,3.2-4.95Z"/><path class="d" d="M468.82,113.47c0,1.63-.11,3.23-.32,4.82h-25.15v.38c-.13,2.71,.5,4.83,1.89,6.36,1.38,1.53,3.38,2.3,5.98,2.3,3.21,0,6.29-1.91,9.23-5.74l5.58,4.57c-1.84,2.56-4.07,4.53-6.69,5.91-2.62,1.38-5.41,2.08-8.37,2.08-4.59,0-8.29-1.41-11.1-4.23-2.81-2.82-4.22-6.57-4.22-11.24-.04-2.85,.41-5.59,1.35-8.2,.94-2.61,2.23-4.85,3.85-6.72,1.63-1.87,3.58-3.35,5.87-4.44,2.28-1.09,4.67-1.6,7.17-1.54,4.48,0,8.09,1.44,10.83,4.31,2.74,2.88,4.11,6.67,4.11,11.38Zm-14.94-8.88c-2.26,0-4.27,.72-6.02,2.16-1.75,1.44-3.01,3.34-3.77,5.71h17.22c.02-2.45-.65-4.38-2.01-5.77-1.36-1.39-3.17-2.09-5.41-2.09Z"/></g></g></g></g></svg>
