<svg width="267" height="102" viewBox="0 0 267 102" fill="none" xmlns="http://www.w3.org/2000/svg">
<g clip-path="url(#clip0_105_726)">
<path d="M266.046 38.4588V44.6C266.046 44.8559 265.933 45.0931 265.745 45.2491C265.639 45.3053 265.532 45.3615 265.425 45.4176C265.388 45.4301 265.35 45.4363 265.313 45.4426C265.275 45.4488 265.231 45.4551 265.193 45.4551H265.049C262.316 45.5487 259.577 45.4551 256.837 45.4988C256.436 45.4988 256.028 45.4176 255.64 45.5674C254.731 45.7359 254.587 46.2914 254.787 47.1027C255.727 50.9036 257.464 54.2738 260.091 57.1946C260.893 58.0871 260.88 58.3555 260.034 59.1918C258.793 60.4275 257.552 61.6695 256.304 62.899C255.627 63.5668 255.126 63.5481 254.493 62.8428C250.806 58.7112 248.286 53.9742 246.976 48.5944C246.193 45.3802 246.061 42.1036 246.305 38.852C246.606 34.7828 247.785 30.8821 249.678 27.2435C250.982 24.7408 252.555 22.4066 254.524 20.3595C255.144 19.7167 255.84 19.7292 256.48 20.3595C257.727 21.589 258.956 22.8373 260.21 24.0605C260.812 24.6472 260.78 25.1714 260.222 25.7893C257.502 28.7663 255.721 32.2489 254.743 36.1433C254.612 36.6613 254.536 37.2917 255.289 37.5351C256.988 37.6786 258.686 37.5601 260.385 37.5975C261.746 37.6287 263.112 37.5413 264.479 37.6162H265.2C265.62 37.6162 265.965 37.9158 266.04 38.309C266.052 38.3652 266.059 38.4151 266.059 38.4713L266.046 38.4588Z" fill="#FFB000"/>
<path d="M266.046 38.3028V38.4526C266.046 38.3964 266.046 38.3465 266.027 38.2903L266.046 38.3028Z" fill="#FFAF00"/>
<path d="M73.5358 0.712296C74.4699 1.03683 75.4854 1.22407 76.3254 1.71087C78.7515 3.10888 79.8235 5.9798 79.0022 8.52618C78.1246 11.266 75.686 12.8887 72.7961 12.8076C69.5864 12.7202 67.0225 9.65582 67.2356 6.55398C67.4425 3.51456 68.9658 1.69839 71.9498 0.968182C72.1629 0.918253 72.3573 0.799671 72.5641 0.706055C72.8901 0.706055 73.2098 0.706055 73.5358 0.706055V0.712296Z" fill="#262B6B"/>
<path d="M30.8825 101.712C30.544 101.5 30.1867 101.313 29.8795 101.063C29.447 100.708 29.2275 100.339 29.378 99.659C29.6099 98.6105 29.5786 97.5058 29.6538 96.4261C29.7479 95.1404 29.8356 93.861 29.9234 92.5753C29.9861 91.7078 30.0676 90.8403 30.0927 89.9728C30.124 89.0117 30.8386 88.8494 31.5219 88.8556C32.2679 88.8619 32.9387 89.1303 32.9889 90.0976C33.0641 91.5643 33.202 93.0309 33.3023 94.4976C33.4151 96.1765 33.5468 97.8616 33.6283 99.5467C33.691 100.82 33.3901 101.188 32.1739 101.544C32.0611 101.575 31.967 101.656 31.8605 101.719H30.8888L30.8825 101.712Z" fill="#262B6B"/>
<path d="M50.0213 0.849747H61.5372C63.1483 1.52379 63.4241 2.26024 62.6844 3.84548C58.5031 12.7765 54.328 21.7076 50.1404 30.6386C47.1941 36.9234 44.2289 43.202 41.2825 49.4868C38.8878 54.6045 36.4242 59.691 34.1549 64.8586C33.3838 66.6061 31.29 66.7747 29.9861 66.1818C29.6914 66.0444 29.4344 65.7012 29.284 65.3891C27.886 62.4745 26.5131 59.5537 25.1277 56.6328C23.059 52.2703 20.984 47.9078 18.9278 43.539C16.7525 38.9081 14.6023 34.2709 12.4395 29.6338C9.74394 23.867 7.04833 18.1064 4.35272 12.3396C3.04253 9.51866 1.71354 6.69767 0.403345 3.86421C0.246624 3.52719 0.165129 3.15896 0.0460205 2.80946C0.171398 1.44265 0.785745 0.880953 2.19624 0.874711C5.86352 0.862229 9.53706 0.862229 13.2043 0.855988C14.0318 1.06194 14.4832 1.62365 14.828 2.38506C20.238 14.2744 25.6606 26.1575 31.0957 38.0343C31.2022 38.2652 31.4592 38.4275 31.6473 38.621C31.8291 38.4213 32.0736 38.2465 32.1802 38.0094C37.5463 26.1887 42.8999 14.368 48.2472 2.53485C48.6171 1.71102 49.0434 1.01202 50.0151 0.843506L50.0213 0.849747Z" fill="#262B6B"/>
<path d="M131.924 16.8332C133.403 17.5822 133.566 18.1376 132.739 19.8602C128.626 28.4168 124.508 36.9733 120.395 45.5299C117.305 51.9583 114.183 58.3679 111.155 64.8274C110.328 66.5874 108.271 67.0056 106.886 66.2005C106.522 65.9883 106.19 65.6201 106.008 65.2456C103.89 60.8893 101.802 56.5143 99.702 52.1517C97.884 48.3821 96.0347 44.6249 94.2293 40.8553C92.1355 36.4865 90.0793 32.1053 88.0043 27.7365C86.6753 24.9405 85.315 22.1507 83.9922 19.3484C83.4155 18.1252 83.9107 17.1578 85.2272 16.8332C85.9983 16.7022 86.7819 16.7833 87.5529 16.7771C90.2674 16.7646 92.9818 16.7708 95.6962 16.7771C95.9908 16.7771 96.2855 16.7209 96.5738 16.8332C97.4515 17.1703 97.953 17.8193 98.3166 18.6806C101.464 26.1887 104.648 33.6843 107.82 41.1861C107.902 41.3796 107.977 41.5793 108.09 41.7603C108.152 41.8664 108.309 42.0162 108.366 41.9974C108.485 41.9475 108.597 41.8227 108.654 41.6979C110.209 38.2028 111.744 34.6953 113.318 31.2065C115.004 27.4556 116.728 23.7172 118.44 19.9725C118.659 19.4982 118.891 19.0301 119.073 18.5371C119.43 17.5947 120.063 16.9955 121.079 16.8332C121.881 16.6959 122.684 16.7833 123.486 16.7771C126.037 16.7646 128.589 16.7708 131.14 16.7771C131.404 16.7771 131.679 16.7209 131.936 16.8395L131.924 16.8332Z" fill="#262B6B"/>
<path d="M66.709 18.4621C66.9723 17.5509 67.5553 16.983 68.5144 16.827C70.79 16.7021 73.0719 16.7895 75.3475 16.777C76.2565 16.777 77.1655 16.6959 78.0744 16.827C79.0022 17.1827 79.6291 17.8131 79.8799 18.7867C79.9927 19.0426 79.9363 19.3172 79.9363 19.5855C79.9363 34.327 79.9363 49.0686 79.9363 63.8101C79.9363 64.0784 79.9864 64.3468 79.8799 64.6089C79.5664 65.5264 79.0273 66.2379 78.0744 66.5686C76.6828 66.706 75.2911 66.6186 73.8994 66.6186C72.1065 66.6186 70.3073 66.6997 68.5144 66.5686C67.5804 66.3877 67.0413 65.7698 66.7153 64.9335C66.5899 64.6776 66.6526 64.403 66.6526 64.1409C66.6526 49.1809 66.6526 34.2272 66.6526 19.2672C66.6526 19.0051 66.5962 18.7305 66.7153 18.4746L66.709 18.4621Z" fill="#262B6B"/>
<path d="M227.612 47.502C227.994 47.7329 228.326 47.8577 228.552 48.0824C235.366 54.8415 242.168 61.6131 248.97 68.3847C249.697 69.1087 249.684 69.4832 248.97 70.1947C247.71 71.4491 246.45 72.7036 245.183 73.958C244.412 74.7195 244.13 74.7319 243.334 73.9768C242.613 73.2902 241.917 72.5725 241.209 71.8673C237.021 67.7045 232.84 63.5416 228.652 59.3788C227.806 58.5425 227.279 58.5425 226.427 59.3913C221.587 64.2032 216.754 69.0088 211.921 73.8207C210.955 74.7819 210.742 74.7881 209.777 73.8332C208.623 72.6973 207.476 71.5552 206.335 70.4131C205.508 69.5768 205.501 69.1274 206.304 68.3223C213.068 61.5882 219.832 54.8602 226.609 48.1385C226.872 47.8827 227.242 47.7329 227.612 47.502Z" fill="#FFAF00"/>
<path d="M210.93 8.61377C211.344 8.9071 211.764 9.12554 212.084 9.44384C216.911 14.2245 221.719 19.0177 226.54 23.8047C227.48 24.7408 227.712 24.7408 228.64 23.8296C233.034 19.4983 237.429 15.1732 241.817 10.8356C242.35 10.3051 242.826 9.72469 243.353 9.18795C243.936 8.59505 244.657 8.59505 245.252 9.18795C246.5 10.4175 247.741 11.6532 248.976 12.8952C249.684 13.6129 249.672 13.9811 248.945 14.7051C242.143 21.4705 235.341 28.2421 228.539 35.0075C227.756 35.7876 227.298 35.7876 226.508 35.0075C219.819 28.3544 213.131 21.7014 206.442 15.0484C205.445 14.056 205.451 13.6566 206.448 12.6643C207.614 11.5034 208.767 10.3363 209.952 9.19419C210.184 8.96951 210.51 8.85093 210.924 8.61377H210.93Z" fill="#FFAF00"/>
<path d="M189.917 37.7346C189.673 37.8532 189.466 38.0404 189.334 38.2776C189.447 38.0342 189.629 37.8407 189.917 37.7346Z" fill="#FFAF00"/>
<path d="M37.2266 88.7559C37.2266 87.0646 37.2266 85.367 37.2266 83.6756C37.2266 82.6084 37.5776 82.3213 38.5744 82.7395C38.9819 82.908 39.264 83.3698 39.6276 83.6632C39.7529 83.763 40.0476 83.8379 40.1291 83.763C42.3733 81.8782 44.6865 81.9468 46.9245 83.9502C47.0123 84.0314 47.3383 83.9752 47.4574 83.8691C48.8679 82.6271 50.504 82.2714 52.3471 82.5085C54.4158 82.7707 55.9517 84.4807 56.0143 86.7712C56.0833 89.1304 56.0708 91.4958 56.1209 93.8549C56.1397 94.6725 55.8451 95.0469 54.9863 94.9408C54.56 94.8847 54.1149 94.8722 53.6949 94.9408C52.8674 95.0781 52.6104 94.7099 52.6166 93.9485C52.6417 91.7454 52.6354 89.5423 52.6542 87.3392C52.6605 86.3718 51.8205 85.5293 50.8488 85.5667C50.5793 85.5729 50.3097 85.5542 50.0401 85.5542C48.9932 85.5542 48.3037 86.3531 48.3287 87.3766C48.3851 89.6297 48.3977 91.8889 48.3538 94.142C48.3538 94.4103 47.8962 94.8347 47.5953 94.8909C46.9182 95.0157 46.1848 95.0594 45.514 94.9284C45.2382 94.8784 44.8746 94.3105 44.8683 93.9735C44.8119 91.7454 44.8244 89.5111 44.8558 87.283C44.8683 86.222 44.2414 85.5355 43.1757 85.5667C41.2387 85.6166 40.5491 86.3406 40.5491 88.3128C40.5491 90.2226 40.5365 92.1261 40.5554 94.0359C40.5616 94.685 40.3297 94.9783 39.6526 94.9346C39.0884 94.8972 38.5117 94.8784 37.9538 94.9408C37.3582 95.0095 37.2266 94.7349 37.2266 94.2294C37.2329 92.4007 37.2266 90.5721 37.2266 88.7497V88.7559Z" fill="#262B6B"/>
<path d="M122.659 82.8392C123.448 82.4522 124.364 82.6208 124.821 83.351C125.11 83.8066 125.248 83.8939 125.699 83.507C127.479 81.9842 130.908 82.0715 132.162 83.8315C132.501 84.3058 132.739 84.0874 133.027 83.7754C134.676 82.0091 138.87 81.9779 140.337 83.8815C141.127 84.9112 141.415 86.0846 141.453 87.3016C141.522 89.5858 141.471 91.8701 141.49 94.1543C141.49 94.7472 141.265 94.9719 140.669 94.9532C140.03 94.9345 139.378 95.0406 138.744 94.9657C138.525 94.9407 138.18 94.5475 138.174 94.3166C138.13 92.3569 138.168 90.3972 138.136 88.4312C138.13 87.8321 138.036 87.2204 137.886 86.64C137.654 85.7351 136.218 85.2358 135.04 85.629C134.162 85.9223 133.648 86.4403 133.679 87.4826C133.742 89.6545 133.667 91.8326 133.717 94.0108C133.736 94.7784 133.46 95.0218 132.733 94.9594C132.25 94.9157 131.748 94.8845 131.278 94.9594C130.457 95.0967 130.269 94.741 130.288 94.0045C130.338 91.8576 130.35 89.7107 130.363 87.5637C130.369 86.5527 129.554 85.5478 128.752 85.5416C127.091 85.5354 125.943 86.3717 125.931 87.6636C125.906 89.7856 125.9 91.9075 125.937 94.0295C125.95 94.7348 125.724 95.0031 125.009 94.9532C124.42 94.9095 123.825 94.9906 123.235 94.9532C123.035 94.9407 122.853 94.7348 122.659 94.6162C122.533 93.7362 122.608 92.8562 122.608 91.9762C122.596 89.2238 122.602 86.4715 122.608 83.7192C122.608 83.4259 122.552 83.1325 122.665 82.8454L122.659 82.8392Z" fill="#262B6B"/>
<path d="M90.1733 83.3136C92.2107 82.2339 94.1854 82.0529 96.1476 83.1576C97.8151 84.0938 98.2413 85.7414 98.3166 87.4577C98.4106 89.6546 98.3417 91.864 98.3605 94.0671C98.3605 94.66 98.1787 94.9346 97.5267 94.9471C95.0254 94.9908 95.0442 95.0095 95.0192 92.5255C95.0003 90.7905 95.0442 89.0367 94.8374 87.3204C94.6117 85.4419 93.4833 85.5417 92.054 85.5604C91.1826 85.5729 90.2109 86.7775 90.1921 87.8759C90.1608 89.8356 90.142 91.8016 90.1984 93.7613C90.2235 94.6413 90.0103 94.9908 89.0387 94.9596C86.8634 94.8847 86.8634 94.9346 86.8634 92.7877C86.8634 87.6824 86.8822 82.5772 86.8446 77.472C86.8446 76.6606 87.0201 76.3361 87.904 76.3673C90.5181 76.4547 90.1545 76.0365 90.1733 78.6453C90.1859 80.1931 90.1733 81.7346 90.1733 83.3199V83.3136Z" fill="#262B6B"/>
<path d="M70.2196 88.9555C70.2196 90.5969 70.2446 92.2384 70.2008 93.8735C70.1882 94.273 70.0315 94.922 69.787 95.0094C69.1539 95.2279 68.3452 95.1592 68.0317 94.4664C67.6431 93.6114 67.2795 93.8298 66.7905 94.2854C65.5054 95.4775 62.208 95.7022 60.7411 94.4415C59.8383 93.6613 59.3807 92.6316 59.3055 91.5643C59.13 89.0117 59.1676 86.4404 59.0923 83.8753C59.0673 83.014 59.3744 82.6333 60.3085 82.6707C62.7283 82.7643 62.5904 82.2338 62.5966 84.9674C62.5966 86.7649 62.5966 88.5686 62.6531 90.366C62.6907 91.5081 63.1984 92.0636 64.145 92.2072C65.2296 92.3757 66.1636 91.9325 66.5335 90.9527C66.7404 90.4035 66.8657 89.7918 66.8783 89.1989C66.9221 87.3204 66.9096 85.4355 66.8845 83.557C66.8783 82.9391 67.0036 82.5833 67.7371 82.677C68.2449 82.7394 68.7652 82.7269 69.273 82.677C70.0127 82.6145 70.2196 82.9828 70.2133 83.6318C70.2008 85.4043 70.2133 87.1768 70.2133 88.9555H70.2196Z" fill="#262B6B"/>
<path d="M79.2593 95.2654C75.9995 95.4526 73.3728 92.9936 72.9465 89.923C72.2193 84.6055 76.9711 81.2104 81.679 82.883C82.5253 83.1826 83.2337 83.8941 83.9609 84.4682C84.0925 84.5743 84.0863 84.9675 84.011 85.186C83.9295 85.4231 83.7101 85.6166 83.5346 85.8163C82.9035 86.5195 82.191 86.5985 81.3969 86.0535C80.2623 85.2733 78.5195 85.3358 77.3786 86.197C76.4007 86.9335 75.9806 88.8932 76.5072 90.2475C77.0025 91.5207 78.2813 92.4257 79.6542 92.2135C80.3751 92.1011 81.1148 91.6705 81.7041 91.2086C82.2808 90.753 82.7008 90.5034 83.2525 91.1462C83.3215 91.2211 83.4343 91.2523 83.5221 91.3147C84.6066 92.1261 84.6818 92.4132 83.7854 93.418C82.6382 94.7037 81.1399 95.2654 79.253 95.2654H79.2593Z" fill="#262B6B"/>
<path d="M161.394 95.309C159.99 95.309 158.642 95.153 157.488 94.2792C157.306 94.1419 157.137 93.755 157.2 93.5615C157.382 92.9935 157.626 92.4131 157.971 91.9325C158.09 91.7703 158.629 91.7703 158.905 91.8764C159.921 92.2758 160.911 92.7813 162.033 92.3382C162.315 92.2259 162.716 91.945 162.723 91.7328C162.735 91.452 162.472 91.0401 162.215 90.8903C161.218 90.3286 160.165 89.873 159.162 89.33C158.14 88.7808 157.35 88.0631 157.056 86.8336C156.698 85.3482 157.407 83.5695 158.824 82.9703C160.817 82.134 162.804 82.2651 164.76 83.1575C165.412 83.4571 165.625 83.8815 165.18 84.5306C165.017 84.7677 164.936 85.0548 164.804 85.317C164.534 85.8537 164.177 85.9536 163.575 85.7476C162.817 85.4917 162.008 85.3419 161.206 85.2733C160.917 85.2483 160.384 85.5541 160.353 85.7663C160.303 86.0784 160.516 86.5902 160.779 86.7524C161.425 87.1519 162.165 87.3953 162.867 87.7135C164.02 88.2378 165.218 88.7433 165.769 89.9728C166.898 92.4755 165.293 94.4664 163.143 95.0718C162.579 95.2279 161.977 95.2403 161.394 95.3152V95.309Z" fill="#262B6B"/>
<path d="M173.091 78.0837C172.878 81.3353 172.665 84.5432 172.446 87.7511C172.402 88.4127 171.631 89.0118 170.797 88.8745C170.239 88.7809 169.612 88.6811 169.581 87.7387C169.518 85.8476 169.236 83.969 169.067 82.078C168.935 80.6113 168.778 79.1384 168.778 77.6717C168.778 77.2473 169.198 76.6607 169.593 76.4298C170.402 75.9492 171.311 75.943 172.201 76.3736C172.966 76.7418 173.261 77.316 173.085 78.0899L173.091 78.0837Z" fill="#262B6B"/>
<path d="M152.041 76.5483C153.106 76.5795 153.482 77.1912 153.545 77.8902C153.577 78.2272 153.238 78.7639 152.918 78.9324C151.414 79.7188 149.872 80.4303 148.311 81.0919C148.11 81.1792 147.583 80.8672 147.433 80.6113C147.289 80.3679 147.308 79.775 147.489 79.6377C148.568 78.8263 149.709 78.1024 150.824 77.3534C151.276 77.0539 151.727 76.7543 152.041 76.5483Z" fill="#272C6B"/>
<path d="M172.954 93.2745C172.954 94.323 171.888 95.384 170.891 95.3528C169.944 95.3216 168.898 94.2044 168.898 93.2371C168.898 92.1948 169.813 91.3148 170.904 91.3023C172.07 91.2836 172.954 92.1386 172.947 93.2807L172.954 93.2745Z" fill="#262B6B"/>
<path d="M33.4778 84.3871C33.4778 85.5729 32.55 86.4779 31.3339 86.4716C30.5127 86.4716 29.4219 85.2671 29.4219 84.3683C29.4219 83.3573 30.4437 82.4024 31.4969 82.4336C32.6566 82.4648 33.4778 83.2762 33.4778 84.3933V84.3871Z" fill="#262B6B"/>
<path d="M173.518 36.1182C173.518 35.8811 173.562 35.6377 173.461 35.4005C173.073 33.2036 172.872 30.9506 172.251 28.8224C170.703 23.5486 167.305 19.8664 162.052 18.0065C158.385 16.7084 154.598 16.3963 150.724 16.6709C146.687 16.958 142.744 17.6445 138.914 18.9552C137.597 19.4045 137.133 19.9038 137.321 21.2207C137.635 23.4488 138.042 25.6706 138.581 27.855C138.939 29.3092 139.647 29.5963 141.089 29.253C141.478 29.1594 141.854 29.0283 142.242 28.9347C145.615 28.0859 149.013 27.5055 152.523 27.6303C154.21 27.6865 155.821 27.9299 157.275 28.7662C159.896 30.2641 161.074 32.6295 161.319 35.569C161.394 36.4927 160.986 36.5052 160.359 36.3367C156.021 35.1883 151.633 34.9137 147.189 35.5815C143.766 36.0995 140.544 37.2104 137.886 39.4572C134.945 41.9474 133.115 45.0992 132.933 49.0623C132.808 51.8459 133.008 54.5732 134.08 57.182C135.108 59.6847 136.575 61.8504 138.813 63.4793C141.39 65.3516 144.261 66.4189 147.42 66.4688C149.74 66.5062 152.116 66.4251 154.373 65.9508C157.695 65.2518 160.673 63.6728 163.237 61.401C163.613 61.064 163.801 61.1514 164.02 61.5695C164.378 62.2436 164.71 62.9488 165.186 63.5355C166.365 64.9834 168.064 65.595 169.819 65.8634C171.794 66.1692 172.822 65.5763 173.449 64.1221C173.549 63.8912 173.505 63.6478 173.505 63.4044C173.505 54.3111 173.505 45.2178 173.505 36.1245L173.518 36.1182ZM161.005 51.1094C160.955 51.6649 160.811 52.289 160.504 52.7446C158.366 55.8839 153.777 57.6002 150.091 56.6952C146.794 55.8901 144.813 52.6447 145.446 49.0998C146.023 45.8544 148.348 43.8697 151.978 43.4703C154.874 43.152 157.658 43.6013 160.384 44.5625C160.873 44.7372 161.055 44.9619 161.036 45.4799C160.999 46.4723 161.024 47.4646 161.024 48.4569C161.024 49.3432 161.087 50.2356 161.005 51.1156V51.1094Z" fill="#262B6B"/>
<path d="M113.519 88.5687C113.374 85.1049 110.353 82.2714 106.999 82.4212C102.974 82.6084 100.617 85.8101 100.83 89.2989C101.025 92.4819 103.814 95.5213 107.225 95.2592C110.873 95.2779 113.669 92.0825 113.525 88.5749L113.519 88.5687ZM107.212 92.2572C105.413 92.2572 104.015 90.7718 104.009 88.8371C104.009 86.8961 105.394 85.4232 107.212 85.4357C109.005 85.4481 110.497 87.0022 110.484 88.8371C110.472 90.6844 108.967 92.2572 107.212 92.2572Z" fill="#262B6B"/>
<path d="M154.391 91.0463H154.291C154.291 89.5983 154.385 88.1441 154.266 86.7024C154.141 85.1671 153.526 83.8253 152.022 83.0826C149.809 81.9904 147.571 82.4273 145.383 83.1075C145.157 83.1762 145.22 84.3558 145.258 85.0173C145.27 85.2607 145.571 85.5104 145.791 85.7038C145.86 85.76 146.085 85.629 146.236 85.604C147.076 85.4792 147.916 85.2795 148.762 85.2545C150.035 85.2233 150.818 85.8848 151.15 86.9958C151.295 87.4763 151.207 87.52 150.73 87.4888C149.59 87.4077 148.424 87.2641 147.301 87.4014C145.74 87.5949 144.493 88.3938 144.085 90.0352C143.697 91.6079 143.929 93.0559 145.132 94.2667C146.512 95.6584 149.295 95.5523 150.937 94.4664C151.502 94.0919 151.84 94.0045 152.373 94.6037C152.68 94.9532 153.42 95.0031 153.965 95.0031C154.109 95.0031 154.354 94.3228 154.373 93.9421C154.429 92.981 154.391 92.0074 154.391 91.04V91.0463ZM149.101 92.7626C148.148 92.8624 147.402 92.3257 147.207 91.4145C146.95 90.1975 148.01 89.2363 149.495 89.3362C149.627 89.3487 149.759 89.3861 149.89 89.4048C150.701 89.5089 151.107 89.9582 151.107 90.7529C151.107 91.895 150.367 92.6315 149.101 92.7626Z" fill="#262B6B"/>
<path d="M208.918 43.9632C208.454 50.2605 206.185 55.915 202.304 60.9141C201.765 61.6131 201.132 62.2372 200.536 62.8925C199.997 63.4854 199.446 63.5791 198.831 62.9612C197.578 61.6942 196.305 60.4523 195.051 59.1916C194.337 58.4738 194.337 58.0182 195.02 57.2755C197.728 54.3422 199.477 50.9034 200.455 47.0588C200.649 46.2974 200.455 45.8168 199.709 45.5672C199.427 45.4112 199.126 45.4923 198.838 45.4923C198.662 45.4923 198.493 45.4923 198.317 45.4923C195.778 45.4923 193.233 45.4923 190.694 45.4923C190.544 45.4923 190.387 45.511 190.23 45.5048C190.061 45.4736 189.898 45.4049 189.754 45.3113C189.384 45.0741 189.14 44.656 189.14 44.1879V41.6852C189.14 40.8239 189.152 39.9627 189.165 39.1014C189.165 38.8018 189.209 38.521 189.322 38.2963C189.453 38.0591 189.66 37.8719 189.905 37.7533C190.017 37.7096 190.149 37.6784 190.299 37.6659C190.425 37.6472 190.544 37.6347 190.669 37.6222C191.534 37.5411 192.406 37.6098 193.277 37.6035C195.271 37.5848 197.264 37.6035 199.258 37.5973C199.521 37.5973 199.797 37.6659 200.054 37.5286C200.913 36.917 200.474 36.1431 200.286 35.4379C199.302 31.7868 197.509 28.5664 194.963 25.7704C194.349 25.0963 194.481 24.5721 195.076 23.9916C196.311 22.7871 197.521 21.5576 198.75 20.3468C199.37 19.7352 200.098 19.729 200.706 20.3843C203.69 23.6359 205.903 27.3369 207.338 31.5122C208.736 35.5689 209.225 39.7442 208.918 43.982V43.9632Z" fill="#FFAF00"/>
<path d="M189.334 38.2777C189.227 38.5086 189.184 38.7833 189.177 39.0828C189.171 39.9441 189.152 40.8054 189.152 41.6667V38.933C189.152 38.6896 189.215 38.465 189.328 38.2715L189.334 38.2777Z" fill="#FCFCFC"/>
<path d="M190.682 37.6038C190.556 37.6162 190.437 37.6287 190.312 37.6474C190.162 37.6662 190.03 37.6911 189.917 37.7348C190.093 37.6474 190.293 37.6038 190.5 37.6038H190.682Z" fill="#FCFCFC"/>
<path d="M198.33 45.4862C198.236 45.5112 198.136 45.5174 198.035 45.5174H190.506C190.419 45.5174 190.331 45.5112 190.249 45.4925C190.406 45.4925 190.556 45.48 190.713 45.48C193.258 45.48 195.797 45.48 198.336 45.48L198.33 45.4862Z" fill="#FCFCFC"/>
<path d="M265.751 45.2427C265.657 45.3238 265.551 45.38 265.432 45.4112C265.538 45.355 265.645 45.2988 265.751 45.2427Z" fill="white"/>
</g>
<defs>
<clipPath id="clip0_105_726">
<rect width="266" height="101" fill="white" transform="translate(0.0460205 0.712402)"/>
</clipPath>
</defs>
</svg>
